<svg width="150" height="250" viewBox="0 0 150 250" fill="none" xmlns="http://www.w3.org/2000/svg">
<g clip-path="url(#clip0_1659_9929)">
<mask id="mask0_1659_9929" style="mask-type:alpha" maskUnits="userSpaceOnUse" x="-23" y="11" width="176" height="185">
<rect x="-23" y="11" width="176" height="185" fill="url(#paint0_radial_1659_9929)"/>
</mask>
<g mask="url(#mask0_1659_9929)">
<path d="M138.797 98.1074C141.021 101.137 142.214 104.801 142.197 108.559C142.277 114.422 140.396 120.143 136.855 124.816C135.95 126.09 134.835 127.201 133.559 128.102C132.542 128.766 130.359 129.23 131.272 130.664C131.618 131.213 132.193 131.798 131.938 132.371L129.4 132.666C128.517 132.763 127.328 132.712 127.086 132.016C126.844 131.319 128.036 130.45 127.565 129.737C127.334 129.489 127.042 129.306 126.718 129.205C118.542 125.863 114.979 118.988 113.487 112.057C112.083 105.629 112.862 97.5664 120.303 93.7776C126.719 90.5225 134.936 93.0758 138.797 98.1074Z" fill="#D15F5C"/>
<path d="M131.333 130.615C130.67 130.719 130 130.769 129.329 130.763C128.643 130.779 127.957 130.725 127.282 130.6C126.964 130.532 126.944 130.141 127.295 130.111C127.956 130.068 128.616 130.075 129.297 130.052C129.978 130.03 130.62 129.967 131.301 129.934C131.403 129.921 131.506 129.945 131.591 130.002C131.676 130.06 131.737 130.147 131.763 130.246C131.758 130.446 131.614 130.572 131.393 130.617L131.333 130.615Z" fill="#F8FAF8"/>
<path d="M129.724 130.574C130.046 133.983 130.188 137.388 130.34 140.793C130.496 144.398 130.673 148.004 130.82 151.619C131.129 158.979 131.439 166.35 131.408 173.712C131.41 177.503 131.452 181.305 131.244 185.091C131.238 185.341 130.708 185.327 130.694 185.077C130.642 181.694 130.679 178.314 130.627 174.932C130.581 171.299 130.504 167.676 130.418 164.043C130.228 156.725 130.007 149.397 129.636 142.075C129.435 138.259 129.183 134.451 129.122 130.628C129.13 130.318 129.692 130.263 129.724 130.584L129.724 130.574Z" fill="#F8FAF8"/>
<g opacity="0.36">
<path d="M127.397 96.0219C128.472 96.1277 129.517 96.4401 130.474 96.9418C131.492 97.3733 132.467 97.901 133.384 98.5176C135.067 99.7562 136.417 101.393 137.312 103.281C138.288 105.326 138.696 107.596 138.493 109.854C138.359 111.008 138.092 112.142 137.695 113.234C137.353 114.357 136.903 115.444 136.351 116.48C136.036 117.032 134.931 116.824 135.058 116.187C135.255 115.132 135.552 114.089 135.67 113.022C135.755 112.044 135.781 111.063 135.746 110.083C135.766 108.097 135.409 106.126 134.696 104.273C133.992 102.625 132.993 101.118 131.75 99.8258C131.176 99.141 130.52 98.5294 129.796 98.0046C128.96 97.4828 128.01 97.0681 127.132 96.5852C126.787 96.4062 127.058 95.9931 127.417 96.0224L127.397 96.0219Z" fill="#F8FAF8"/>
</g>
<g opacity="0.36">
<path d="M135.245 119.783C135.034 120.087 134.867 120.419 134.749 120.77L134.752 120.64C134.701 120.796 134.663 120.955 134.64 121.118C134.586 121.295 134.464 121.444 134.301 121.532C134.137 121.62 133.945 121.639 133.768 121.585C133.6 121.552 133.452 121.455 133.355 121.314C133.299 121.245 133.265 121.16 133.256 121.071C133.248 120.982 133.266 120.892 133.308 120.813C133.533 120.258 133.862 119.75 134.277 119.318C134.369 119.231 134.486 119.174 134.612 119.156C134.738 119.138 134.866 119.159 134.979 119.216C135.187 119.311 135.34 119.575 135.205 119.762L135.245 119.783Z" fill="#F8FAF8"/>
</g>
<g opacity="0.36">
<path d="M121.946 97.5214L121.824 97.6082L121.764 97.6067C121.764 97.6067 121.672 97.6843 121.764 97.6067L121.714 97.6054L121.611 97.7027C121.541 97.7696 121.476 97.8415 121.416 97.9178C121.383 97.9492 121.355 97.9856 121.333 98.0257C121.281 98.0844 121.333 98.0257 121.333 98.0257C121.333 98.0257 121.331 98.0857 121.331 98.0957C121.229 98.247 121.145 98.4092 121.079 98.5793L120.972 98.8166C120.967 98.863 120.966 98.9099 120.969 98.9566C120.969 98.9566 120.966 99.0465 120.969 98.9566C120.971 98.8666 120.969 98.9566 120.969 98.9566C120.935 99.0889 120.853 99.2042 120.74 99.2808C120.603 99.3592 120.445 99.3936 120.288 99.3791C119.968 99.3708 119.725 99.0944 119.772 98.8156C119.8 98.5888 119.863 98.3677 119.959 98.1602C120.066 97.9433 120.206 97.7445 120.374 97.5707C120.676 97.217 121.04 96.9213 121.447 96.6982C121.563 96.6351 121.695 96.6098 121.826 96.6258C121.956 96.6417 122.078 96.6981 122.175 96.787C122.214 96.8287 122.244 96.8786 122.261 96.933C122.278 96.9875 122.282 97.0451 122.274 97.1016C122.266 97.1581 122.245 97.212 122.213 97.2593C122.181 97.3067 122.139 97.3462 122.09 97.3751L121.946 97.5214Z" fill="#F8FAF8"/>
</g>
<g opacity="0.36">
<path d="M119.179 103.192C119.169 103.572 119.089 103.94 119.05 104.309C119.018 104.425 118.944 104.524 118.842 104.588C118.741 104.653 118.619 104.676 118.501 104.655C118.373 104.646 118.253 104.589 118.165 104.496C118.125 104.457 118.095 104.409 118.077 104.357C118.059 104.304 118.054 104.248 118.062 104.193C118.182 103.836 118.291 103.469 118.4 103.111C118.408 103.067 118.425 103.025 118.45 102.988C118.475 102.951 118.508 102.919 118.546 102.895C118.634 102.844 118.736 102.822 118.838 102.833C118.929 102.84 119.014 102.88 119.077 102.947C119.14 103.013 119.176 103.1 119.179 103.192Z" fill="#F8FAF8"/>
</g>
<g opacity="0.36">
<path d="M126.833 99.6285C127.907 100.406 128.807 101.4 129.475 102.545C130.143 103.691 130.564 104.963 130.713 106.281C130.706 106.531 130.254 106.589 130.221 106.328C129.906 103.787 128.609 101.47 126.607 99.8727C126.431 99.7281 126.617 99.4828 126.833 99.6285V99.6285Z" fill="#F8FAF8"/>
</g>
<g opacity="0.36">
<path d="M130.795 108.134C130.89 108.696 130.996 109.249 131.101 109.812C131.098 109.932 131.015 110.04 130.875 110.057C130.734 110.073 130.567 109.989 130.56 109.868C130.524 109.307 130.479 108.736 130.434 108.175C130.438 107.985 130.77 107.933 130.795 108.134Z" fill="#F8FAF8"/>
</g>
<g opacity="0.36">
<path d="M131.49 113.344L131.486 113.494C131.491 113.517 131.491 113.541 131.484 113.563C131.491 113.583 131.49 113.604 131.483 113.623C131.463 113.63 131.442 113.629 131.423 113.622C131.4 113.629 131.375 113.628 131.353 113.62L131.293 113.619C131.26 113.628 131.225 113.627 131.193 113.616C131.193 113.616 131.193 113.616 131.195 113.536L131.199 113.376C131.194 113.367 131.192 113.356 131.192 113.346C131.192 113.335 131.195 113.325 131.201 113.316C131.201 113.316 131.201 113.316 131.202 113.256L131.262 113.258L131.342 113.26C131.375 113.251 131.41 113.251 131.442 113.262C131.451 113.288 131.45 113.317 131.44 113.342L131.49 113.344Z" fill="#F8FAF8"/>
</g>
<g opacity="0.36">
<path d="M131.178 117.277C130.878 117.269 130.939 116.87 131.188 116.897C131.437 116.923 131.428 117.303 131.178 117.277Z" fill="#F8FAF8"/>
</g>
<path d="M118.699 125.197C121.221 127.391 123.062 130.26 124.007 133.467C125.545 138.233 125.5 143.369 123.878 148.108C123.494 149.322 122.892 150.456 122.101 151.453C121.492 152.178 119.852 152.946 120.935 154.004C121.354 154.415 121.915 154.8 121.901 155.33L119.973 156.01C119.296 156.252 118.352 156.408 117.976 155.858C117.6 155.308 118.334 154.367 117.788 153.853C117.555 153.675 117.277 153.568 116.985 153.542C109.69 152.103 105.153 146.893 102.228 141.286C99.5012 136.084 98.0594 129.174 103.018 124.671C107.258 120.839 114.381 121.604 118.699 125.197Z" fill="#E19B9C"/>
<path d="M120.976 153.955C120.474 154.158 119.954 154.316 119.423 154.425C118.878 154.557 118.319 154.623 117.758 154.622C117.498 154.615 117.376 154.292 117.648 154.219C118.162 154.062 118.655 153.965 119.199 153.829C119.742 153.693 120.207 153.525 120.731 153.389C120.816 153.364 120.906 153.369 120.988 153.404C121.069 153.439 121.136 153.501 121.176 153.58C121.242 153.742 121.168 153.88 120.976 153.955V153.955Z" fill="#F8FAF8"/>
<path d="M119.7 154.192C120.797 157.011 121.763 159.867 122.74 162.724C123.782 165.752 124.817 168.779 125.846 171.807C127.937 177.983 129.998 184.169 131.857 190.389C132.775 193.594 133.802 196.811 134.608 200.043C134.663 200.265 134.241 200.334 134.176 200.122C133.25 197.267 132.464 194.406 131.577 191.552C130.655 188.527 129.655 185.43 128.663 182.383C126.672 176.22 124.661 170.066 122.529 163.929C121.411 160.739 120.263 157.558 119.246 154.34C119.162 154.078 119.606 153.94 119.719 154.203L119.7 154.192Z" fill="#F8FAF8"/>
<g opacity="0.36">
<path d="M109.143 125.31C110.074 125.182 111.021 125.261 111.918 125.541C112.908 125.734 113.876 126.028 114.806 126.416C116.555 127.243 118.077 128.48 119.245 130.022C120.467 131.582 121.298 133.411 121.667 135.357C122.003 137.274 121.952 139.238 121.518 141.135C121.383 141.702 120.308 141.874 120.207 141.171C120.105 140.468 120.05 139.506 119.901 138.682C119.723 137.843 119.493 137.015 119.215 136.204C118.707 134.588 117.983 133.048 117.062 131.626C116.17 130.326 115.059 129.191 113.778 128.27C113.133 127.723 112.427 127.251 111.674 126.865C110.843 126.494 109.908 126.31 109.045 125.997C108.96 125.995 108.88 125.959 108.822 125.898C108.763 125.836 108.732 125.754 108.734 125.669C108.736 125.584 108.772 125.504 108.833 125.445C108.895 125.387 108.977 125.355 109.062 125.357L109.143 125.31Z" fill="#F8FAF8"/>
</g>
<g opacity="0.36">
<path d="M121.398 144.233C121.398 144.233 121.396 144.303 121.395 144.343L121.398 144.213C121.313 144.538 121.28 144.875 121.302 145.211L121.306 145.061C121.304 145.161 121.301 145.261 121.348 145.372C121.359 145.46 121.351 145.549 121.324 145.633C121.297 145.717 121.252 145.794 121.192 145.859C121.132 145.924 121.059 145.975 120.978 146.009C120.896 146.043 120.809 146.059 120.72 146.056C120.629 146.065 120.538 146.055 120.451 146.026C120.364 145.998 120.284 145.951 120.216 145.89C120.148 145.829 120.094 145.755 120.056 145.672C120.018 145.588 119.998 145.498 119.997 145.407C120.037 144.894 120.179 144.394 120.415 143.937C120.441 143.881 120.478 143.83 120.523 143.789C120.569 143.747 120.623 143.715 120.681 143.694C120.815 143.648 120.961 143.651 121.091 143.705C121.154 143.722 121.212 143.753 121.263 143.793C121.313 143.834 121.355 143.885 121.385 143.942C121.41 143.998 121.423 144.058 121.421 144.118C121.419 144.179 121.404 144.238 121.376 144.292L121.398 144.233Z" fill="#F8FAF8"/>
</g>
<g opacity="0.36">
<path d="M105.313 127.591C105.255 127.655 105.203 127.724 105.157 127.797L105.156 127.857C105.158 127.787 105.158 127.787 105.156 127.857L105.154 127.937C105.082 128.083 105.024 128.236 104.982 128.393C104.982 128.393 104.982 128.393 104.984 128.333L104.982 128.393C104.976 128.433 104.975 128.473 104.979 128.513C104.977 128.593 104.975 128.663 104.973 128.743C104.959 128.902 104.955 129.063 104.96 129.223C104.951 129.291 104.927 129.357 104.891 129.416C104.856 129.476 104.808 129.527 104.751 129.567C104.648 129.638 104.524 129.674 104.399 129.668C104.265 129.68 104.131 129.646 104.019 129.57C103.908 129.494 103.827 129.382 103.789 129.252C103.748 129.048 103.737 128.839 103.755 128.631C103.793 128.426 103.855 128.226 103.941 128.036C104.09 127.667 104.313 127.332 104.596 127.052C104.68 126.957 104.795 126.896 104.921 126.881C105.053 126.862 105.187 126.89 105.299 126.961C105.352 126.988 105.398 127.027 105.435 127.075C105.471 127.123 105.497 127.178 105.509 127.236C105.522 127.295 105.522 127.355 105.509 127.414C105.496 127.472 105.47 127.527 105.433 127.574L105.313 127.591Z" fill="#F8FAF8"/>
</g>
<g opacity="0.36">
<path d="M104.548 132.803C104.61 133.115 104.671 133.436 104.742 133.808C104.751 133.872 104.745 133.936 104.726 133.997C104.707 134.058 104.675 134.113 104.631 134.16C104.588 134.207 104.535 134.243 104.476 134.267C104.416 134.291 104.353 134.301 104.289 134.297C104.163 134.301 104.039 134.258 103.942 134.178C103.889 134.138 103.847 134.086 103.819 134.026C103.791 133.966 103.778 133.9 103.781 133.834C103.789 133.514 103.797 133.194 103.807 132.834C103.81 132.789 103.823 132.746 103.845 132.707C103.867 132.668 103.896 132.634 103.933 132.607C104.002 132.562 104.082 132.536 104.165 132.533C104.254 132.527 104.342 132.551 104.416 132.602C104.489 132.653 104.543 132.728 104.567 132.814L104.548 132.803Z" fill="#F8FAF8"/>
</g>
<path d="M105.311 136.934L105.368 137.056L105.311 136.924L105.311 136.934Z" fill="#F8FAF8"/>
<g opacity="0.36">
<path d="M109.681 128.504C111.839 129.511 113.534 131.3 114.423 133.509C114.497 133.731 114.054 133.849 113.96 133.627C113.074 131.532 111.483 129.814 109.464 128.769C109.257 128.654 109.473 128.399 109.681 128.504Z" fill="#F8FAF8"/>
</g>
<g opacity="0.36">
<path d="M114.924 135.012C115.142 135.468 115.371 135.924 115.599 136.37C115.615 136.401 115.623 136.435 115.623 136.469C115.623 136.503 115.615 136.537 115.6 136.568C115.584 136.599 115.562 136.625 115.534 136.646C115.507 136.666 115.475 136.68 115.441 136.686C115.371 136.707 115.296 136.7 115.232 136.667C115.168 136.633 115.119 136.576 115.095 136.507L114.601 135.144C114.589 135.125 114.583 135.104 114.581 135.082C114.579 135.061 114.583 135.039 114.591 135.019C114.599 134.998 114.612 134.98 114.629 134.966C114.645 134.952 114.665 134.941 114.686 134.936C114.728 134.92 114.775 134.918 114.818 134.932C114.862 134.946 114.899 134.974 114.924 135.012V135.012Z" fill="#F8FAF8"/>
</g>
<g opacity="0.36">
<path d="M116.784 139.302L116.841 139.423C116.848 139.446 116.847 139.471 116.839 139.493C116.844 139.504 116.846 139.516 116.846 139.529C116.846 139.541 116.843 139.553 116.837 139.563C116.837 139.563 116.837 139.563 116.835 139.623C116.816 139.63 116.795 139.629 116.775 139.622L116.725 139.62L116.616 139.618C116.586 139.601 116.562 139.576 116.547 139.546L116.491 139.414C116.487 139.394 116.487 139.374 116.492 139.354C116.487 139.331 116.488 139.307 116.494 139.284C116.492 139.264 116.492 139.244 116.496 139.224L116.556 139.226L116.716 139.23C116.745 139.246 116.769 139.271 116.784 139.302V139.302Z" fill="#F8FAF8"/>
</g>
<g opacity="0.36">
<path d="M117.455 142.73C117.426 142.736 117.395 142.735 117.366 142.728C117.337 142.721 117.31 142.707 117.287 142.687C117.264 142.668 117.246 142.644 117.233 142.616C117.221 142.589 117.215 142.559 117.216 142.529C117.217 142.499 117.224 142.47 117.238 142.443C117.252 142.416 117.271 142.393 117.295 142.375C117.319 142.357 117.347 142.344 117.376 142.338C117.406 142.332 117.436 142.333 117.465 142.34C117.495 142.335 117.525 142.335 117.554 142.343C117.583 142.35 117.61 142.364 117.633 142.383C117.656 142.403 117.675 142.427 117.687 142.454C117.699 142.482 117.705 142.512 117.705 142.542C117.704 142.572 117.696 142.601 117.683 142.628C117.669 142.655 117.649 142.678 117.625 142.696C117.601 142.714 117.574 142.727 117.544 142.733C117.515 142.739 117.484 142.738 117.455 142.73Z" fill="#F8FAF8"/>
</g>
<path d="M147.202 126.624C148.675 129.581 149.204 132.92 148.715 136.187C148.054 141.318 145.787 146.109 142.239 149.874C141.34 150.889 140.276 151.744 139.092 152.403C138.19 152.88 136.295 153.051 136.87 154.406C137.096 154.922 137.492 155.493 137.209 155.976L135.06 155.92C134.32 155.901 133.344 155.736 133.221 155.092C133.097 154.449 134.254 153.819 133.912 153.109C133.756 152.865 133.531 152.671 133.266 152.553C126.903 148.727 124.828 142.331 124.44 136.059C124.08 130.247 125.692 123.257 132.389 120.739C138.125 118.657 144.626 121.796 147.202 126.624Z" fill="white"/>
<path d="M136.931 154.368C136.364 154.408 135.795 154.393 135.231 154.324C134.659 154.259 134.096 154.134 133.55 153.95C133.303 153.854 133.332 153.515 133.631 153.532C134.181 153.547 134.729 153.641 135.278 153.685C135.827 153.729 136.387 153.714 136.935 153.798C137.022 153.8 137.104 153.833 137.167 153.892C137.231 153.951 137.27 154.031 137.277 154.117C137.272 154.307 137.11 154.393 136.93 154.408L136.931 154.368Z" fill="#F8FAF8"/>
<path d="M135.596 154.163C135.438 157.16 135.121 160.153 134.822 163.196C134.499 166.379 134.197 169.572 133.874 172.755C133.196 179.26 132.538 185.725 131.58 192.222C131.113 195.551 130.667 198.901 130.022 202.185C130.016 202.405 129.538 202.333 129.573 202.114C129.951 199.122 130.408 196.133 130.804 193.193C131.214 190.002 131.61 186.808 131.993 183.61C132.76 177.158 133.489 170.644 134.095 164.228C134.412 160.855 134.679 157.481 135.107 154.121C135.114 153.851 135.633 153.864 135.616 154.134L135.596 154.163Z" fill="#F8FAF8"/>
<g opacity="0.36">
<path d="M137.97 123.485C138.861 123.649 139.703 124.013 140.433 124.549C141.249 125.048 142.027 125.607 142.761 126.219C144.098 127.507 145.067 129.127 145.57 130.914C146.178 132.861 146.246 134.938 145.765 136.921C145.224 139.007 144.261 140.96 142.936 142.659C142.563 143.13 141.503 142.752 141.678 142.167C141.931 141.283 142.283 140.422 142.496 139.537C142.68 138.628 142.814 137.71 142.898 136.786C143.13 135.071 143.077 133.329 142.741 131.631C142.386 130.195 141.796 128.828 140.995 127.584C140.625 126.88 140.153 126.234 139.594 125.667C138.988 125.121 138.29 124.633 137.633 124.146C137.563 124.099 137.512 124.028 137.49 123.946C137.468 123.864 137.477 123.777 137.514 123.701C137.552 123.625 137.615 123.566 137.693 123.533C137.771 123.5 137.859 123.497 137.939 123.524L137.97 123.485Z" fill="#F8FAF8"/>
</g>
<g opacity="0.36">
<path d="M141.585 145.385C141.512 145.484 141.44 145.572 141.377 145.67L141.45 145.552C141.273 145.805 141.137 146.086 141.049 146.382L141.053 146.222C141.053 146.222 141.05 146.322 141.049 146.372C141.033 146.484 140.981 146.588 140.901 146.668L140.778 146.785C140.684 146.84 140.579 146.876 140.47 146.891C140.362 146.905 140.251 146.898 140.146 146.869C139.968 146.823 139.813 146.712 139.714 146.557C139.651 146.479 139.613 146.384 139.603 146.285C139.593 146.185 139.612 146.085 139.658 145.996C139.742 145.858 139.835 145.73 139.929 145.593L139.835 145.72C139.968 145.522 140.113 145.332 140.27 145.151C140.435 144.986 140.609 144.83 140.793 144.675C140.919 144.598 141.069 144.57 141.215 144.596C141.332 144.614 141.442 144.665 141.531 144.744C141.579 144.781 141.618 144.828 141.647 144.881C141.675 144.934 141.692 144.993 141.698 145.053C141.703 145.113 141.695 145.174 141.676 145.231C141.656 145.288 141.625 145.341 141.585 145.385V145.385Z" fill="#F8FAF8"/>
</g>
<g opacity="0.36">
<path d="M133.376 124.336L133.112 124.499L132.98 124.596L132.92 124.594C132.92 124.594 133.032 124.507 132.92 124.594C132.773 124.733 132.642 124.888 132.528 125.054L132.611 124.926L132.339 125.37L132.423 125.242C132.339 125.367 132.266 125.499 132.202 125.636C132.13 125.76 132.017 125.855 131.883 125.906C131.749 125.958 131.601 125.961 131.465 125.917C131.335 125.889 131.217 125.819 131.13 125.718C131.081 125.664 131.044 125.6 131.022 125.53C131 125.461 130.992 125.387 131 125.315C131.053 125.105 131.133 124.902 131.236 124.711C131.358 124.523 131.504 124.352 131.669 124.202C132.008 123.904 132.392 123.664 132.808 123.491C132.929 123.451 133.06 123.45 133.181 123.49C133.302 123.529 133.408 123.605 133.483 123.709C133.515 123.756 133.538 123.81 133.55 123.867C133.561 123.924 133.561 123.982 133.549 124.039C133.537 124.095 133.514 124.149 133.481 124.197C133.448 124.244 133.406 124.285 133.357 124.316L133.376 124.336Z" fill="#F8FAF8"/>
</g>
<g opacity="0.36">
<path d="M130.356 128.969C130.277 129.297 130.209 129.616 130.14 129.964C130.113 130.084 130.042 130.189 129.942 130.259C129.875 130.299 129.8 130.324 129.722 130.335C129.645 130.345 129.566 130.339 129.49 130.317C129.424 130.305 129.361 130.278 129.306 130.239C129.251 130.199 129.206 130.148 129.173 130.089C129.14 130.03 129.121 129.964 129.116 129.897C129.111 129.829 129.122 129.761 129.146 129.698C129.294 129.402 129.432 129.096 129.58 128.799C129.625 128.717 129.697 128.654 129.783 128.62C129.87 128.585 129.966 128.583 130.055 128.612C130.235 128.616 130.399 128.831 130.355 128.999L130.356 128.969Z" fill="#F8FAF8"/>
</g>
<path d="M129.288 133.103L129.285 133.243L129.288 133.103C129.288 133.103 129.288 133.103 129.338 133.104C129.388 133.106 129.338 133.104 129.338 133.104L129.288 133.103Z" fill="#F8FAF8"/>
<g opacity="0.36">
<path d="M137.127 126.664C137.936 127.493 138.564 128.48 138.975 129.563C139.386 130.645 139.57 131.801 139.515 132.958C139.508 133.258 139 133.164 138.997 132.884C139.071 130.66 138.289 128.491 136.813 126.826C136.648 126.641 136.963 126.439 137.128 126.624L137.127 126.664Z" fill="#F8FAF8"/>
</g>
<g opacity="0.36">
<path d="M139.334 134.544C139.321 135.043 139.378 135.545 139.396 136.046C139.398 136.082 139.392 136.118 139.378 136.152C139.365 136.186 139.344 136.216 139.318 136.241C139.292 136.266 139.26 136.285 139.226 136.297C139.191 136.309 139.155 136.312 139.119 136.308C139.081 136.31 139.044 136.304 139.01 136.291C138.975 136.278 138.943 136.258 138.917 136.232C138.89 136.206 138.869 136.174 138.855 136.14C138.841 136.105 138.835 136.068 138.836 136.031C138.849 135.531 138.922 135.033 138.954 134.534C138.959 134.354 139.329 134.353 139.334 134.544Z" fill="#F8FAF8"/>
</g>
<g opacity="0.36">
<path d="M139.264 139.203L139.26 139.343C139.26 139.343 139.259 139.393 139.258 139.413L139.208 139.412C139.182 139.417 139.155 139.416 139.128 139.41L138.988 139.406L138.9 139.344C138.897 139.311 138.898 139.277 138.903 139.244L138.904 139.194C138.9 139.171 138.901 139.147 138.906 139.124L138.956 139.125C138.982 139.118 139.01 139.118 139.036 139.127L139.116 139.129L139.176 139.131L139.266 139.133L139.264 139.183C139.273 139.213 139.273 139.244 139.262 139.273L139.264 139.203Z" fill="#F8FAF8"/>
</g>
<g opacity="0.36">
<path d="M138.484 142.684C138.456 142.68 138.43 142.671 138.406 142.657C138.382 142.642 138.361 142.624 138.344 142.601C138.328 142.579 138.316 142.554 138.309 142.527C138.302 142.5 138.301 142.472 138.305 142.445C138.309 142.417 138.318 142.391 138.332 142.367C138.346 142.343 138.365 142.322 138.387 142.305C138.41 142.289 138.435 142.277 138.462 142.27C138.489 142.263 138.517 142.262 138.544 142.266C138.572 142.27 138.598 142.279 138.622 142.293C138.646 142.307 138.667 142.326 138.683 142.348C138.7 142.371 138.712 142.396 138.719 142.423C138.726 142.45 138.727 142.478 138.723 142.505C138.719 142.533 138.71 142.559 138.696 142.583C138.681 142.607 138.663 142.628 138.64 142.644C138.618 142.661 138.593 142.673 138.566 142.68C138.539 142.687 138.511 142.688 138.484 142.684V142.684Z" fill="#F8FAF8"/>
</g>
<path d="M-0.0167857 94.5153C-2.39513 97.4254 -3.77524 101.023 -3.95355 104.777C-4.33105 110.627 -2.74976 116.437 0.54082 121.289C1.37893 122.607 2.43447 123.775 3.66258 124.741C4.64439 125.456 6.8002 126.032 5.81404 127.417C5.4402 127.948 4.83566 128.502 5.06057 129.088L7.58041 129.514C8.45701 129.656 9.64713 129.667 9.93489 128.984C10.2226 128.302 9.05633 127.371 9.56428 126.684C9.8099 126.446 10.1147 126.278 10.4472 126.197C18.7754 123.281 22.6995 116.6 24.5372 109.756C26.282 103.409 25.9112 95.3163 18.6766 91.1478C12.4272 87.5649 4.10941 89.6904 -0.0167857 94.5153Z" fill="#D15F5C"/>
<path d="M5.74532 127.365C6.40208 127.503 7.06902 127.588 7.73948 127.617C8.40714 127.665 9.07789 127.645 9.74165 127.559C10.0631 127.507 10.1032 127.118 9.75433 127.069C9.1061 126.992 8.43658 126.965 7.75785 126.907C7.07911 126.85 6.44139 126.753 5.76291 126.686C5.66189 126.667 5.55749 126.686 5.46948 126.739C5.38146 126.792 5.31594 126.875 5.28531 126.973C5.28013 127.173 5.41673 127.307 5.63536 127.363L5.74532 127.365Z" fill="#F8FAF8"/>
<path d="M7.35483 127.407C6.85702 130.795 6.54914 134.189 6.22127 137.581C5.86823 141.173 5.50519 144.765 5.17189 148.368C4.48192 155.702 3.7917 163.047 3.44136 170.4C3.24335 174.186 3.0151 177.982 3.02702 181.773C3.02056 182.023 3.55037 182.037 3.56684 181.787C3.79422 178.412 3.93164 175.034 4.15903 171.659C4.40288 168.034 4.65647 164.42 4.94031 160.796C5.49929 153.498 6.09851 146.191 6.85742 138.898C7.24588 135.097 7.69406 131.307 7.95283 127.493C7.96085 127.183 7.40284 127.098 7.35457 127.417L7.35483 127.407Z" fill="#F8FAF8"/>
<g opacity="0.36">
<path d="M11.4656 93.022C10.3892 93.0709 9.3327 93.3289 8.35494 93.7817C7.29825 94.1551 6.28076 94.6314 5.31715 95.2036C3.59292 96.363 2.1787 97.9269 1.19794 99.7586C0.122039 101.752 -0.402248 103.997 -0.320795 106.261C-0.242377 107.42 -0.0337877 108.567 0.301021 109.679C0.58476 110.818 0.978169 111.927 1.47575 112.99C1.76116 113.558 2.87545 113.407 2.78204 112.764C2.63952 111.7 2.39677 110.643 2.33448 109.571C2.29975 108.591 2.32515 107.609 2.41053 106.632C2.48523 104.648 2.9398 102.697 3.74964 100.885C4.54521 99.2765 5.62297 97.8237 6.93167 96.5959C7.53778 95.9389 8.225 95.3617 8.97678 94.8782C9.83943 94.4003 10.8192 94.0356 11.7208 93.5988C12.0751 93.4379 11.826 93.0113 11.4556 93.0217L11.4656 93.022Z" fill="#F8FAF8"/>
</g>
<g opacity="0.36">
<path d="M2.41927 116.346C2.61365 116.662 2.76624 117.002 2.87323 117.358L2.82661 117.227C2.8702 117.384 2.89951 117.546 2.91417 117.709C2.95861 117.889 3.07281 118.044 3.23165 118.14C3.39049 118.236 3.58097 118.265 3.7612 118.221C3.93027 118.196 4.08319 118.107 4.18779 117.972C4.2465 117.905 4.28537 117.823 4.30001 117.735C4.31465 117.647 4.30451 117.557 4.2707 117.474C4.07097 116.907 3.76544 116.383 3.37034 115.93C3.28473 115.838 3.17239 115.775 3.04919 115.751C2.92599 115.726 2.79814 115.741 2.68367 115.792C2.46142 115.877 2.30474 116.133 2.41979 116.326L2.41927 116.346Z" fill="#F8FAF8"/>
</g>
<g opacity="0.36">
<path d="M16.8614 94.8021L16.9691 94.8949L17.029 94.8965C17.029 94.8965 17.1169 94.9788 17.029 94.8965L17.079 94.8978L17.1764 95.0003C17.2464 95.0706 17.3113 95.1459 17.3706 95.2254L17.4478 95.3374C17.4462 95.3974 17.4478 95.3374 17.4478 95.3374C17.4478 95.3374 17.4462 95.3974 17.4959 95.4087C17.5826 95.5674 17.6553 95.7332 17.7132 95.9045C17.7436 95.9871 17.7782 96.0682 17.8169 96.1472C17.8115 96.1937 17.8103 96.2405 17.8133 96.2872C17.8133 96.2872 17.811 96.3772 17.8133 96.2872C17.8156 96.1972 17.8133 96.2872 17.8133 96.2872C17.8226 96.355 17.8463 96.42 17.8827 96.4779C17.9192 96.5357 17.9676 96.5852 18.0247 96.6228C18.1535 96.7093 18.3068 96.7518 18.4617 96.7441C18.6059 96.7452 18.7447 96.6898 18.8483 96.5895C18.9519 96.4893 19.0121 96.3524 19.0158 96.2083C18.9945 95.9811 18.9431 95.7577 18.8629 95.5441C18.7598 95.326 18.6307 95.1212 18.4786 94.934C18.1919 94.5649 17.8408 94.2508 17.4422 94.0068C17.3302 93.9379 17.1994 93.9058 17.0682 93.915C16.937 93.9241 16.812 93.9741 16.7106 94.0579C16.668 94.0972 16.6353 94.1459 16.6149 94.2002C16.5946 94.2544 16.5873 94.3126 16.5936 94.3702C16.5999 94.4278 16.6196 94.4831 16.6512 94.5316C16.6827 94.5802 16.7253 94.6207 16.7753 94.6498L16.8614 94.8021Z" fill="#F8FAF8"/>
</g>
<g opacity="0.36">
<path d="M19.3021 100.607C19.2923 100.987 19.3527 101.359 19.3731 101.729C19.4008 101.848 19.4714 101.951 19.5713 102.02C19.6712 102.09 19.7931 102.119 19.9136 102.103C20.0384 102.099 20.1572 102.048 20.2473 101.962C20.2891 101.925 20.3216 101.879 20.3421 101.828C20.3626 101.776 20.3704 101.72 20.3651 101.665C20.2644 101.302 20.174 100.93 20.0834 100.567C20.0779 100.523 20.0632 100.48 20.0401 100.441C20.0169 100.403 19.9859 100.37 19.9491 100.344C19.864 100.287 19.7629 100.26 19.661 100.266C19.5697 100.269 19.4824 100.305 19.4162 100.368C19.3499 100.431 19.3093 100.516 19.3021 100.607V100.607Z" fill="#F8FAF8"/>
</g>
<path d="M19.5283 105.395L19.5244 105.545L19.5283 105.395C19.5208 105.39 19.5123 105.387 19.5035 105.387C19.4947 105.387 19.4861 105.389 19.4783 105.393L19.5283 105.395Z" fill="#F8FAF8"/>
<g opacity="0.36">
<path d="M11.8418 96.6529C10.74 97.3812 9.80082 98.3298 9.08348 99.4389C8.36614 100.548 7.88616 101.794 7.67374 103.097C7.66727 103.347 8.1153 103.429 8.16201 103.17C8.61158 100.647 10.0305 98.4002 12.1153 96.91C12.2888 96.7745 12.1254 96.5202 11.8918 96.6542L11.8418 96.6529Z" fill="#F8FAF8"/>
</g>
<g opacity="0.36">
<path d="M7.446 104.942C7.32155 105.499 7.18737 106.046 7.05292 106.602C7.04932 106.634 7.05237 106.666 7.06189 106.697C7.07142 106.727 7.08719 106.755 7.10821 106.78C7.12924 106.804 7.15505 106.823 7.184 106.837C7.21296 106.85 7.24442 106.857 7.27637 106.858C7.40633 106.862 7.57782 106.806 7.59092 106.686C7.66539 106.128 7.73012 105.559 7.81459 105.001C7.8195 104.812 7.49116 104.743 7.446 104.942Z" fill="#F8FAF8"/>
</g>
<g opacity="0.36">
<path d="M6.48198 110.109L6.4781 110.259C6.47198 110.282 6.47136 110.305 6.47629 110.329C6.46892 110.348 6.46837 110.369 6.47473 110.389L6.53473 110.39C6.55723 110.398 6.58179 110.399 6.60469 110.392L6.66467 110.394C6.69698 110.404 6.73182 110.405 6.76464 110.396C6.76839 110.37 6.76908 110.343 6.76671 110.316L6.77085 110.156C6.77604 110.137 6.77657 110.116 6.7724 110.096C6.77977 110.077 6.78032 110.056 6.77396 110.036L6.71398 110.035L6.644 110.033L6.58402 110.031C6.55171 110.02 6.51687 110.02 6.48405 110.029C6.47798 110.055 6.47727 110.082 6.48198 110.109V110.109Z" fill="#F8FAF8"/>
</g>
<g opacity="0.36">
<path d="M6.6 114.053C6.8899 114.061 6.85028 113.659 6.55986 113.672C6.26944 113.684 6.29958 114.065 6.6 114.053Z" fill="#F8FAF8"/>
</g>
<path d="M14.8816 151.21C15.3756 151.44 15.8899 151.624 16.4179 151.76C16.9524 151.919 17.5041 152.014 18.0611 152.042C18.321 152.049 18.4593 151.733 18.1914 151.646C17.686 151.462 17.199 151.34 16.6631 151.176C16.1271 151.012 15.6719 150.82 15.156 150.657C15.0724 150.629 14.982 150.631 14.8994 150.662C14.8169 150.692 14.7472 150.75 14.7015 150.825C14.6274 150.983 14.6937 151.125 14.8816 151.21V151.21Z" fill="#F8FAF8"/>
<path d="M16.1542 151.513C14.9024 154.271 13.7895 157.073 12.6667 159.875C11.4794 162.846 10.2722 165.815 9.09498 168.786C6.68742 174.846 4.30958 180.916 2.13065 187.032C1.04872 190.185 -0.143426 193.345 -1.11617 196.531C-1.17184 196.75 -0.764039 196.84 -0.68863 196.632C0.384242 193.829 1.31742 191.012 2.36031 188.208C3.43758 185.235 4.59663 182.194 5.7344 179.202C8.04173 173.15 10.3688 167.108 12.8153 161.09C14.0967 157.962 15.4177 154.845 16.5899 151.684C16.6866 151.426 16.2506 151.265 16.1339 151.522L16.1542 151.513Z" fill="#F8FAF8"/>
<g opacity="0.36">
<path d="M31.8874 125.691C31.9422 125.758 31.9906 125.829 32.0319 125.905L32.0304 125.965L32.0283 126.045C32.0998 126.193 32.1529 126.348 32.1864 126.509C32.1864 126.509 32.1864 126.509 32.1879 126.449L32.1864 126.509C32.1901 126.549 32.1891 126.589 32.1833 126.629C32.1812 126.709 32.1794 126.779 32.1773 126.859C32.1832 127.019 32.179 127.179 32.1649 127.339C32.1813 127.477 32.2495 127.604 32.3558 127.694C32.4565 127.768 32.5777 127.81 32.7028 127.813C32.8363 127.834 32.9729 127.807 33.0883 127.737C33.2038 127.666 33.2905 127.557 33.3329 127.429C33.3729 127.225 33.3783 127.015 33.349 126.809C33.3223 126.602 33.2705 126.399 33.1946 126.205C33.0646 125.829 32.8591 125.483 32.5906 125.189C32.5144 125.092 32.4062 125.026 32.2854 125.001C32.1519 124.974 32.0129 124.995 31.8937 125.061C31.8405 125.087 31.7935 125.125 31.7557 125.17C31.718 125.216 31.6903 125.27 31.6747 125.327C31.659 125.384 31.6557 125.444 31.6649 125.503C31.6741 125.561 31.6956 125.617 31.728 125.667L31.8874 125.691Z" fill="#F8FAF8"/>
</g>
<g opacity="0.36">
<path d="M32.3919 130.936C32.3039 131.244 32.2256 131.562 32.1361 131.93C32.1241 131.992 32.1261 132.057 32.142 132.118C32.158 132.18 32.1875 132.238 32.2283 132.286C32.2692 132.335 32.3204 132.375 32.3783 132.401C32.4362 132.428 32.4993 132.442 32.563 132.441C32.6918 132.449 32.8197 132.414 32.9258 132.34C32.9804 132.303 33.0252 132.253 33.0564 132.194C33.0875 132.136 33.104 132.071 33.1045 132.005C33.1128 131.685 33.121 131.365 33.1304 131.005C33.1316 130.96 33.1218 130.915 33.102 130.875C33.0821 130.834 33.0527 130.799 33.0164 130.772C32.9497 130.723 32.8709 130.693 32.7885 130.686C32.7011 130.676 32.6128 130.696 32.5386 130.743C32.4644 130.79 32.4089 130.862 32.3816 130.946L32.3919 130.936Z" fill="#F8FAF8"/>
</g>
<g opacity="0.36">
<path d="M19.8262 136.793L19.7631 136.911C19.7592 136.934 19.7586 136.958 19.7613 136.981C19.7557 136.992 19.7526 137.004 19.7523 137.016C19.752 137.028 19.7545 137.04 19.7595 137.051L19.7579 137.111C19.7771 137.119 19.7983 137.119 19.8179 137.113V137.113L19.9279 137.116C19.9279 137.116 19.9779 137.117 19.9897 137.047L20.053 136.919C20.0579 136.899 20.0584 136.879 20.0546 136.859C20.0607 136.836 20.0613 136.812 20.0564 136.789C20.0598 136.769 20.0603 136.749 20.0579 136.729C20.0387 136.721 20.0175 136.721 19.9979 136.727L19.838 136.723L19.7662 136.791L19.8262 136.793Z" fill="#F8FAF8"/>
</g>
<g opacity="0.36">
<path d="M18.9782 140.182C19.0073 140.19 19.0377 140.19 19.0672 140.184C19.0966 140.178 19.1243 140.166 19.1483 140.148C19.1723 140.13 19.1918 140.106 19.2056 140.08C19.2193 140.053 19.2268 140.024 19.2276 139.993C19.2284 139.963 19.2224 139.934 19.2101 139.906C19.1977 139.879 19.1794 139.855 19.1564 139.835C19.1334 139.816 19.1064 139.802 19.0773 139.795C19.0482 139.787 19.0177 139.786 18.9883 139.792C18.9592 139.785 18.9288 139.784 18.8993 139.79C18.8699 139.796 18.8422 139.808 18.8182 139.826C18.7942 139.845 18.7747 139.868 18.7609 139.895C18.7472 139.921 18.7397 139.951 18.7389 139.981C18.7381 140.011 18.7441 140.041 18.7564 140.068C18.7688 140.095 18.7871 140.12 18.8101 140.139C18.8331 140.158 18.8601 140.172 18.8892 140.18C18.9184 140.187 18.9488 140.188 18.9782 140.182V140.182Z" fill="#F8FAF8"/>
</g>
<path d="M-9.89556 122.559C-11.52 125.436 -12.2202 128.742 -11.9012 132.03C-11.5028 137.188 -9.48721 142.089 -6.14156 146.034C-5.29458 147.092 -4.27675 148.001 -3.13012 148.723C-2.25335 149.246 -0.359666 149.515 -1.01412 150.838C-1.25724 151.342 -1.69159 151.891 -1.43435 152.388L0.71492 152.444C1.45467 152.463 2.43797 152.348 2.59448 151.712C2.75099 151.076 1.62844 150.387 2.00643 149.696C2.17529 149.46 2.40946 149.278 2.68018 149.173C9.23269 145.682 11.6359 139.402 12.3577 133.158C13.0176 127.374 11.7599 120.309 5.2017 117.448C-0.418712 115.072 -7.07333 117.871 -9.89556 122.559Z" fill="white"/>
<path d="M-1.06309 150.797C-0.502709 150.867 0.0631197 150.881 0.626346 150.841C1.20098 150.807 1.77026 150.711 2.3243 150.555C2.57655 150.471 2.56536 150.131 2.2652 150.133C1.71538 150.119 1.1635 150.185 0.612912 150.2C0.0623197 150.216 -0.496721 150.172 -1.04835 150.227C-1.1346 150.225 -1.21885 150.254 -1.2849 150.309C-1.35096 150.365 -1.39418 150.443 -1.40626 150.528C-1.41117 150.718 -1.25355 150.812 -1.06413 150.837L-1.06309 150.797Z" fill="#F8FAF8"/>
<path d="M0.270851 150.662C0.273219 153.663 0.435528 156.668 0.576556 159.722C0.733956 162.918 0.87111 166.122 1.03851 169.318C1.36968 175.848 1.70188 182.339 2.31296 188.877C2.60643 192.226 2.87939 195.594 3.36384 198.908C3.35815 199.128 3.82954 199.08 3.80524 198.859C3.58295 195.852 3.28068 192.844 3.0371 189.886C2.79332 186.679 2.56295 183.469 2.34601 180.255C1.92357 173.772 1.52268 167.23 1.24916 160.79C1.10667 157.405 1.01416 154.022 0.761452 150.644C0.768437 150.374 0.248616 150.361 0.251628 150.631L0.270851 150.662Z" fill="#F8FAF8"/>
<g opacity="0.36">
<path d="M4.03968 120.989C4.12547 121.042 4.2075 121.101 4.2852 121.166L4.42257 121.269L4.47254 121.27C4.47254 121.27 4.3649 121.178 4.47254 121.27C4.61444 121.415 4.73795 121.576 4.84026 121.75L4.76365 121.618C4.85973 121.771 4.92583 121.922 5.02192 122.075L4.93532 121.943C5.01194 122.073 5.07864 122.208 5.13489 122.348C5.20092 122.475 5.3085 122.576 5.43979 122.634C5.57108 122.692 5.71824 122.704 5.8569 122.667C5.98854 122.646 6.10964 122.582 6.20169 122.486C6.25316 122.434 6.29314 122.372 6.31904 122.303C6.34493 122.235 6.35616 122.162 6.35199 122.089C6.3143 121.875 6.24552 121.668 6.14785 121.474C6.03918 121.278 5.90224 121.099 5.74144 120.943C5.42053 120.627 5.04847 120.367 4.64096 120.174C4.52222 120.128 4.39183 120.121 4.26868 120.154C4.14553 120.186 4.03601 120.258 3.95601 120.357C3.92133 120.403 3.89646 120.457 3.88289 120.513C3.86933 120.57 3.86735 120.628 3.87709 120.686C3.88682 120.743 3.90807 120.798 3.93954 120.846C3.97101 120.895 4.01205 120.937 4.06018 120.97L4.03968 120.989Z" fill="#F8FAF8"/>
</g>
<g opacity="0.36">
<path d="M6.80689 125.772C6.86833 126.104 6.92003 126.426 6.97096 126.777C6.99559 126.896 7.05977 127.004 7.15312 127.082C7.21843 127.125 7.2918 127.154 7.3688 127.168C7.4458 127.182 7.52485 127.181 7.60117 127.163C7.66903 127.156 7.73435 127.134 7.79221 127.097C7.85007 127.061 7.89894 127.012 7.93513 126.955C7.97132 126.897 7.99388 126.831 8.0011 126.764C8.00832 126.696 8.00003 126.627 7.97683 126.563C7.84464 126.259 7.7227 125.946 7.59051 125.643C7.54993 125.559 7.48127 125.491 7.39642 125.453C7.31158 125.414 7.21587 125.406 7.12584 125.431C6.9459 125.426 6.77052 125.631 6.80611 125.802L6.80689 125.772Z" fill="#F8FAF8"/>
</g>
<g opacity="0.36">
<path d="M0.16331 123.12C-0.683292 123.909 -1.36024 124.862 -1.82622 125.922C-2.2922 126.981 -2.53745 128.124 -2.547 129.282C-2.55476 129.581 -2.03286 129.515 -2.02562 129.235C-1.97646 127.009 -1.08086 124.886 0.478813 123.298C0.643416 123.122 0.338946 122.904 0.164346 123.08L0.16331 123.12Z" fill="#F8FAF8"/>
</g>
<path d="M30.1927 72.8896C31.0949 76.6842 31.8211 80.7043 34.3011 83.8295C35.3382 85.1942 36.6798 86.2977 38.2191 87.0519C38.6141 87.2869 39.0522 87.4406 39.5075 87.5039C39.9628 87.5672 40.4262 87.539 40.8704 87.4207C41.4369 87.1753 42.079 86.3315 41.5536 85.7578C41.0283 85.184 40.1329 85.3809 39.5566 85.6161C38.8262 85.9671 38.2089 86.5161 37.7751 87.2005C36.9218 88.4823 36.5522 90.0257 36.7321 91.555C36.9209 93.0614 37.649 94.4484 38.7818 95.4593C39.3797 95.9929 40.1093 96.3571 40.8952 96.5143C41.6718 96.6545 43.2788 96.406 43.0881 95.2707C43.0076 94.9804 42.8302 94.7264 42.5855 94.5509C42.3407 94.3753 42.0433 94.2888 41.7426 94.3055C41.1454 94.3342 40.5669 94.523 40.0679 94.8524C39.1933 95.3362 38.4299 95.998 37.8269 96.795C36.686 98.3423 36.1492 100.253 36.3174 102.168C36.3125 102.358 36.0013 102.4 35.9775 102.159C35.7751 100.166 36.346 98.1721 37.5721 96.5884C38.1546 95.8124 38.8775 95.1525 39.7032 94.6429C40.0965 94.329 40.5583 94.1122 41.0511 94.0103C41.5438 93.9083 42.0537 93.924 42.5393 94.056C42.73 94.1286 42.903 94.241 43.0467 94.3859C43.1903 94.5308 43.3013 94.7048 43.3722 94.8962C43.443 95.0875 43.4721 95.2918 43.4575 95.4953C43.4428 95.6988 43.3848 95.8968 43.2873 96.0761C42.9848 96.4289 42.6067 96.709 42.181 96.8954C41.7553 97.0818 41.293 97.1698 40.8286 97.1528C39.8477 97.0976 38.9048 96.7546 38.1177 96.1667C37.3305 95.5788 36.734 94.7721 36.4027 93.8472C35.7558 92.0801 35.7812 90.1369 36.4739 88.3872C36.7634 87.5393 37.2421 86.7684 37.8738 86.1331C38.5056 85.4977 39.2737 85.0146 40.12 84.7203C40.4936 84.6001 40.8943 84.5924 41.2722 84.6982C41.6501 84.8041 41.9885 85.0188 42.2453 85.3155C42.5065 85.6822 42.6363 86.1263 42.6138 86.5759C42.5913 87.0255 42.4177 87.4544 42.1212 87.7931C40.5518 89.6832 37.5864 88.306 36.0057 87.1547C31.5087 83.8873 30.1677 78.1107 29.5424 72.8928C29.4931 72.4813 30.0978 72.3069 30.1869 72.7294L30.1927 72.8896Z" fill="#F9EDD4"/>
<path d="M75.6425 34.4425C75.6014 34.6405 75.6001 34.8448 75.6385 35.0434C75.6769 35.242 75.7543 35.431 75.8662 35.5994C75.9782 35.7679 76.1224 35.9125 76.2906 36.0249C76.4587 36.1373 76.6475 36.2153 76.846 36.2542C77.2455 36.3316 77.6594 36.2487 77.9984 36.0236C78.3374 35.7984 78.5742 35.449 78.6577 35.0507C78.6973 34.852 78.6973 34.6474 78.6577 34.4488C78.6181 34.2501 78.5397 34.0612 78.427 33.8929C78.3142 33.7245 78.1694 33.5801 78.0008 33.4678C77.8321 33.3556 77.643 33.2777 77.4442 33.2387C77.2467 33.1977 77.0431 33.1965 76.8451 33.235C76.6472 33.2736 76.4589 33.3511 76.2912 33.4631C76.1235 33.5752 75.9798 33.7195 75.8684 33.8876C75.757 34.0557 75.6802 34.2444 75.6425 34.4425V34.4425Z" fill="#9287E1"/>
<path d="M35.5417 155.726C35.5007 155.924 35.4993 156.128 35.5377 156.327C35.5761 156.525 35.6535 156.714 35.7654 156.883C35.8774 157.051 36.0216 157.196 36.1898 157.308C36.358 157.421 36.5467 157.498 36.7452 157.537C37.145 157.618 37.5603 157.536 37.8999 157.31C38.2395 157.085 38.4758 156.733 38.557 156.334C38.6198 155.94 38.5287 155.538 38.3025 155.21C38.0763 154.881 37.7323 154.653 37.3421 154.572C36.951 154.494 36.5448 154.57 36.209 154.785C35.8732 155.001 35.634 155.338 35.5417 155.726Z" fill="#9287E1"/>
<path d="M17.7507 42.2675C17.7096 42.4655 17.7083 42.6698 17.7467 42.8684C17.7851 43.0669 17.8625 43.256 17.9744 43.4245C18.0864 43.5929 18.2306 43.7375 18.3987 43.8499C18.5669 43.9623 18.7557 44.0402 18.9542 44.0792C19.354 44.1593 19.7692 44.0776 20.1089 43.852C20.4485 43.6264 20.6848 43.2752 20.7659 42.8757C20.846 42.4759 20.7643 42.0606 20.5387 41.721C20.3131 41.3814 19.962 41.1451 19.5624 41.0639C19.1626 40.9838 18.7474 41.0656 18.4077 41.2912C18.0681 41.5168 17.8318 41.8679 17.7507 42.2675V42.2675Z" fill="#9287E1"/>
<path d="M132.674 51.3434C132.597 51.7429 132.68 52.1569 132.905 52.4958C133.13 52.8348 133.48 53.0716 133.878 53.1551C134.278 53.2353 134.693 53.1535 135.033 52.9279C135.372 52.7023 135.609 52.3512 135.69 51.9516C135.731 51.7535 135.732 51.5493 135.694 51.3507C135.655 51.1521 135.578 50.9631 135.466 50.7946C135.354 50.6262 135.21 50.4815 135.042 50.3691C134.873 50.2567 134.685 50.1788 134.486 50.1399C134.288 50.0988 134.084 50.0975 133.885 50.1359C133.687 50.1743 133.498 50.2517 133.329 50.3637C133.161 50.4756 133.016 50.6198 132.904 50.788C132.791 50.9561 132.713 51.1449 132.674 51.3434V51.3434Z" fill="#9287E1"/>
<path d="M29.3679 31.3144L32.9245 27.6251L37.9847 28.4563L35.5707 23.9423L37.9192 19.3916L32.8742 20.2914L29.2776 16.6371L28.5761 21.7107L23.995 24.0129L28.6086 26.253L29.3679 31.3144Z" fill="#E19B9C"/>
<path d="M124.424 76.3884L122.19 73.8097L118.799 74.1921L120.565 71.2768L119.155 68.1693L122.476 68.9355L124.986 66.6397L125.278 70.0384L128.246 71.7157L125.11 73.055L124.424 76.3884Z" fill="#E19B9C"/>
<path d="M64.2134 18.4114C64.5688 19.5638 64.689 20.7758 64.5669 21.9755C64.4448 23.1753 64.0828 24.3382 63.5025 25.3953C62.9695 26.293 62.2116 27.0362 61.3035 27.5512C60.3955 28.0663 59.3687 28.3356 58.3248 28.3324C56.5453 28.2863 53.9771 26.6393 55.2602 24.6018C55.5242 24.2247 55.8714 23.9133 56.275 23.6919C56.6786 23.4705 57.1277 23.3449 57.5876 23.3249C58.0475 23.3049 58.5059 23.3909 58.9272 23.5765C59.3485 23.762 59.7214 24.042 60.0172 24.3948C61.3874 25.9508 61.7502 28.5511 61.5186 30.5458C61.456 31.626 61.1068 32.6701 60.5068 33.5706C59.9068 34.4711 59.0778 35.1954 58.1049 35.6692C56.355 36.4141 53.7385 36.2464 52.798 34.3214C52.5952 33.8876 52.5549 33.3953 52.6843 32.9342C52.8137 32.4732 53.1043 32.0738 53.5032 31.8088C53.964 31.5079 54.5021 31.3469 55.0524 31.3452C55.6027 31.3434 56.1418 31.5011 56.6045 31.799C57.6222 32.4279 58.4163 33.361 58.8743 34.4662C59.3322 35.5714 59.4308 36.7927 59.1561 37.9571C58.8559 39.0987 58.2105 40.1197 57.3081 40.8806C56.4057 41.6415 55.2903 42.1051 54.1144 42.2081C53.633 42.2557 53.5445 41.4231 54.0262 41.3655C54.8133 41.2824 55.5672 41.004 56.2193 40.5555C56.8714 40.1069 57.4011 39.5025 57.7603 38.7972C58.1194 38.0919 58.2966 37.308 58.2758 36.5168C58.255 35.7256 58.0368 34.9521 57.641 34.2667C57.2502 33.5685 56.6632 33.0003 55.9527 32.6325C55.731 32.5089 55.4857 32.4336 55.2328 32.4116C54.98 32.3895 54.7253 32.4211 54.4855 32.5045C54.2417 32.5867 54.0366 32.7556 53.9091 32.9792C53.7816 33.2027 53.7406 33.4653 53.7939 33.717C53.9773 34.362 54.8377 34.7443 55.4444 34.8801C56.2147 35.014 57.0075 34.9052 57.7132 34.5687C60.6393 33.2139 61.1642 28.776 59.9937 26.0748C59.4175 24.7594 57.8789 23.5292 56.6141 24.857C55.3493 26.1847 57.8291 26.9991 58.8398 26.9852C59.7089 26.9414 60.5507 26.6669 61.2786 26.19C62.0065 25.713 62.5942 25.0508 62.9814 24.2715C63.7735 22.4605 64.0267 20.4596 63.7107 18.5084C63.7185 18.2085 64.1393 18.1794 64.2123 18.4514L64.2134 18.4114Z" fill="#F9EDD4"/>
<path d="M135.42 9.79054C134.397 10.4137 133.508 11.235 132.806 12.2063C132.104 13.1776 131.603 14.2792 131.333 15.4467C131.133 16.4723 131.204 17.5324 131.54 18.5218C131.876 19.5113 132.464 20.3959 133.247 21.0881C134.629 22.2042 137.616 22.7217 138.018 20.3413C138.072 19.8839 138.02 19.4203 137.866 18.9863C137.712 18.5523 137.46 18.1596 137.13 17.8387C136.799 17.5177 136.4 17.2771 135.962 17.1354C135.523 16.9938 135.059 16.9549 134.603 17.0218C132.536 17.2684 130.551 18.9776 129.388 20.6181C128.714 21.4658 128.278 22.4779 128.126 23.55C127.973 24.6222 128.109 25.7156 128.52 26.7177C129.336 28.4294 131.435 30.0442 133.387 29.2344C133.825 29.0448 134.181 28.7044 134.39 28.275C134.6 27.8455 134.648 27.3554 134.527 26.8932C134.381 26.3646 134.085 25.8894 133.676 25.5241C133.267 25.1588 132.762 24.9188 132.22 24.8328C131.042 24.6298 129.83 24.8009 128.755 25.3221C127.679 25.8433 126.794 26.6884 126.223 27.7386C125.687 28.7893 125.489 29.9794 125.654 31.1471C125.818 32.3147 126.339 33.4033 127.144 34.2646C127.475 34.6233 128.1 34.0593 127.779 33.7009C127.248 33.1144 126.871 32.4048 126.683 31.6363C126.495 30.8677 126.502 30.0644 126.703 29.299C126.903 28.5336 127.291 27.8303 127.832 27.2526C128.373 26.675 129.049 26.2412 129.799 25.9906C130.557 25.7254 131.377 25.6943 132.152 25.9014C132.399 25.9575 132.632 26.0638 132.837 26.2136C133.041 26.3634 133.212 26.5536 133.34 26.7724C133.467 26.9979 133.507 27.2619 133.452 27.5148C133.398 27.7676 133.253 27.9919 133.045 28.1452C132.718 28.2693 132.366 28.3131 132.019 28.2727C131.672 28.2324 131.339 28.1092 131.05 27.9135C130.389 27.5017 129.873 26.8939 129.574 26.1748C128.291 23.2106 130.846 19.5555 133.52 18.2742C134.826 17.6778 136.794 17.7887 136.857 19.611C136.92 21.4332 134.525 20.4109 133.773 19.7212C133.154 19.109 132.71 18.343 132.486 17.5021C132.261 16.6611 132.265 15.7757 132.496 14.9366C133.111 13.0604 134.255 11.4018 135.791 10.1602C136.006 9.94574 135.685 9.6273 135.441 9.77105L135.42 9.79054Z" fill="#F9EDD4"/>
<path d="M91.7051 51.1736C91.7051 51.1736 96.2191 51.4604 96.9009 57.2C97.5827 62.9395 90.7806 69.1157 94.8813 73.7833C98.9819 78.4509 86.4338 90.9705 78.8283 91.4739C71.2227 91.9774 70.42 96.7082 70.42 96.7082C70.42 96.7082 62.1977 96.3053 62.8079 88.1884C63.4181 80.0715 63.8335 79.0919 70.8525 75.7424C77.8715 72.3928 77.8835 69.6122 77.3176 60.5545C76.7517 51.4969 79.9637 49.5293 85.0754 49.1414C90.1872 48.7535 91.7051 51.1736 91.7051 51.1736Z" fill="#D9665E"/>
<path d="M65.1736 161.834L67.2801 178.234L61.27 180.48L55.3356 162.79L65.1736 161.834Z" fill="#E19B9C"/>
<path d="M55.3648 194.131L72.0359 182.709L69.2939 177.726C68.4532 176.194 67.6692 174.793 67.3815 174.316C66.693 173.087 66.0465 175.651 66.0465 175.651L63.7829 177.694C63.5548 177.513 63.2805 177.4 62.9912 177.367C62.7019 177.335 62.4093 177.385 62.147 177.511C61.6901 177.675 61.2855 177.958 60.9754 178.331C60.6114 178.817 60.4074 179.405 60.3917 180.012C60.376 180.619 60.5493 181.216 60.8877 181.72C60.8877 181.72 57.049 187.033 55.7218 188.069C54.3945 189.105 53.9503 190.423 54.8927 193.049C55.0536 193.403 55.1945 193.757 55.3648 194.131Z" fill="#D9665E"/>
<path d="M59.97 183.167C60.2399 182.957 60.5619 182.824 60.9013 182.784C61.2408 182.743 61.5849 182.796 61.8966 182.937C62.0648 183.011 62.1917 182.744 62.0236 182.67C61.666 182.506 61.2705 182.443 60.8798 182.488C60.489 182.532 60.1178 182.682 59.8063 182.922C59.6535 183.029 59.7972 183.272 59.97 183.167V183.167Z" fill="white"/>
<path d="M59.1044 184.145C59.3743 183.935 59.6963 183.802 60.0357 183.762C60.3752 183.721 60.7193 183.774 61.031 183.914C61.1992 183.989 61.3261 183.722 61.158 183.648C60.7999 183.486 60.4049 183.424 60.0146 183.469C59.6243 183.513 59.2532 183.662 58.9407 183.9C58.7876 184.017 58.9314 184.26 59.1044 184.145V184.145Z" fill="white"/>
<path d="M58.3859 185.237C58.6547 185.028 58.9754 184.897 59.3133 184.858C59.6511 184.82 59.9932 184.874 60.3023 185.016C60.4804 185.091 60.6073 184.824 60.4292 184.749C60.0716 184.586 59.6761 184.523 59.2854 184.567C58.8947 184.612 58.5235 184.762 58.2119 185.002C58.0691 185.108 58.2029 185.352 58.3859 185.237Z" fill="white"/>
<path d="M55.3648 194.131L72.0359 182.709L69.2939 177.726C68.7494 177.92 68.2663 178.255 67.8944 178.697C67.5225 179.139 67.2752 179.673 67.1781 180.242C66.7864 182.233 67.5655 183.053 65.8948 183.83C64.2242 184.607 62.6101 184.355 61.5287 186.328C61.0325 187.205 60.7214 188.174 60.6148 189.175L54.9332 193.03C55.0536 193.403 55.1945 193.757 55.3648 194.131Z" fill="white"/>
<path d="M84.2907 109.231C90.7026 112.881 98.2734 113.922 105.433 112.139C105.433 112.139 109.225 123.681 108.259 130.108C107.292 136.535 79.2306 130.818 76.02 125.003C74.1276 121.592 84.2907 109.231 84.2907 109.231Z" fill="#9287E1"/>
<path d="M83.149 111.602C86.4372 114.076 90.2286 115.796 94.2552 116.642C98.2817 117.487 102.445 117.438 106.45 116.497C106.672 116.443 106.723 116.794 106.501 116.848C100.13 118.349 93.4367 117.607 87.5491 114.747C85.9139 113.947 84.3608 112.989 82.9116 111.886C82.8792 111.856 82.8593 111.814 82.8558 111.77C82.8522 111.726 82.8651 111.682 82.8922 111.646C82.9192 111.611 82.9584 111.587 83.0021 111.579C83.0458 111.57 83.091 111.579 83.129 111.602L83.149 111.602Z" fill="#313131"/>
<path d="M86.0947 110.648C85.5691 111.307 85.185 112.066 84.9666 112.88C84.9009 113.098 84.5744 112.96 84.63 112.741C84.8662 111.9 85.2674 111.115 85.8102 110.431C85.9548 110.255 86.2401 110.442 86.0947 110.648Z" fill="#424E8D"/>
<path d="M102.706 113.919C102.938 114.964 103.002 116.04 102.893 117.105C102.887 117.335 102.519 117.285 102.543 117.096C102.642 116.06 102.575 115.015 102.343 114C102.299 113.779 102.651 113.728 102.705 113.959L102.706 113.919Z" fill="#313131"/>
<path d="M96.2147 113.871C96.3429 114.873 96.2759 115.891 96.0171 116.867C95.9614 117.086 95.6126 117.037 95.6672 116.858C95.9111 115.923 95.977 114.951 95.8614 113.992C95.8674 113.762 96.1888 113.711 96.2129 113.941L96.2147 113.871Z" fill="#313131"/>
<path d="M90.5158 113.754C90.4687 113.977 90.3351 114.172 90.1444 114.296C89.9536 114.421 89.7213 114.464 89.4983 114.418C89.3871 114.395 89.2813 114.351 89.1871 114.288C89.0929 114.225 89.0121 114.144 88.9495 114.049C88.8869 113.954 88.8436 113.848 88.8221 113.737C88.8006 113.626 88.8014 113.511 88.8244 113.4C88.8739 113.178 89.008 112.985 89.1981 112.861C89.3882 112.737 89.6193 112.692 89.8419 112.736C89.9532 112.758 90.059 112.802 90.1532 112.865C90.2474 112.929 90.3281 113.01 90.3908 113.105C90.4534 113.199 90.4967 113.305 90.5182 113.417C90.5396 113.528 90.5388 113.643 90.5158 113.754V113.754Z" fill="#424E8D"/>
<path d="M89.0413 125.119C89.0413 125.119 82.0227 149.716 78.2378 171.505C75.9821 184.451 86.2041 230.511 86.2041 230.511L104.321 229.7C104.321 229.7 98.3019 182.428 98.3214 173.946C98.3408 165.463 109.172 141.216 108.582 127.646C107.993 114.076 89.0413 125.119 89.0413 125.119Z" fill="#2C2D3E"/>
<path d="M78.105 172.382C78.0921 172.882 77.9992 173.38 77.9732 173.999C77.8792 175.943 77.8923 177.89 78.0123 179.832C78.4892 188.848 80.5325 201.505 82.4527 211.958C82.4488 212.108 82.5147 212.27 82.5408 212.42C82.7784 213.677 83.007 214.893 83.2366 216.07C83.2302 216.32 83.3337 216.572 83.3774 216.814C83.8718 219.357 84.3324 221.66 84.7315 223.631C84.7277 223.781 84.8035 223.943 84.8296 224.094C85.6471 228.066 86.203 230.551 86.203 230.551L104.32 229.74L104.112 228.134C104.116 227.974 104.12 227.804 104.055 227.622C103.83 225.876 103.491 223.126 103.077 219.774C103.082 219.614 103.036 219.443 103.02 219.272C102.738 217.034 102.442 214.546 102.13 211.917C102.136 211.687 102.073 211.445 102.039 211.194C101.43 206.107 100.785 200.518 100.202 195.222L100.128 194.579C99.9251 192.764 99.7312 190.978 99.5553 189.273C99.5623 189.003 99.4993 188.731 99.4763 188.461C99.0192 184.087 98.6895 180.207 98.4713 177.431C98.4782 177.161 98.485 176.901 98.4214 176.649C98.3594 175.567 98.3232 174.646 98.3195 174.016C98.3586 172.785 98.504 171.561 98.7544 170.356L98.9258 169.53C99.5976 166.376 100.76 162.445 102.061 158.167C102.149 157.869 102.236 157.562 102.334 157.264C104.522 150.048 107.001 141.97 108.061 135.035C108.068 134.785 108.144 134.537 108.181 134.288C108.512 132.113 108.646 129.914 108.581 127.716C107.933 114.104 89.039 125.209 89.039 125.209C89.039 125.209 85.2653 138.446 81.7592 154.101C81.6919 154.379 81.6247 154.657 81.5672 154.946C81.1592 156.796 80.754 158.67 80.3514 160.566C80.294 160.855 80.2362 161.154 80.1687 161.442C79.471 164.825 78.8122 168.249 78.2354 171.595C78.2282 171.689 78.2258 171.782 78.2282 171.875C78.1556 171.973 78.1305 172.173 78.105 172.382Z" fill="#9287E1"/>
<path d="M104.483 118.687C106.089 126.221 105.197 133.99 103.515 141.419C101.728 149.376 99.0298 157.008 97.4333 164.97C96.0954 172.213 95.6758 179.596 96.1844 186.945C96.5708 194.047 97.4883 201.113 98.5566 208.153C99.4882 214.289 100.58 220.4 101.432 226.554C101.525 227.206 101.608 227.849 101.691 228.501C101.69 228.544 101.672 228.584 101.641 228.613C101.611 228.642 101.57 228.658 101.527 228.657C101.485 228.656 101.445 228.638 101.415 228.607C101.386 228.576 101.37 228.535 101.371 228.493C100.615 222.531 99.5581 216.612 98.6213 210.676C97.5316 203.695 96.5525 196.688 96.0356 189.602C95.3976 182.498 95.5558 175.345 96.5074 168.277C97.7174 160.176 100.4 152.372 102.414 144.502C104.319 137.019 105.691 129.201 104.661 121.482C104.535 120.529 104.36 119.584 104.164 118.638C104.119 118.437 104.441 118.385 104.485 118.587L104.483 118.687Z" fill="#313131"/>
<path d="M97.6825 117.84C97.2464 120.585 97.7014 123.397 98.9806 125.864C100.26 128.332 102.296 130.324 104.79 131.549C104.998 131.654 104.859 131.981 104.652 131.875C102.081 130.625 99.9818 128.58 98.6638 126.044C97.3458 123.507 96.8794 120.614 97.3337 117.791C97.3442 117.752 97.3675 117.718 97.3998 117.694C97.4322 117.67 97.4718 117.657 97.5122 117.658C97.5526 117.659 97.5915 117.674 97.6225 117.7C97.6536 117.725 97.6751 117.761 97.6836 117.8L97.6825 117.84Z" fill="#313131"/>
<path d="M54.3556 171.668L71.0376 169.098C71.0376 169.098 63.7397 135.678 67.1872 135.047C70.6346 134.416 87.9494 142.187 87.9494 142.187C91.6033 128.167 84.6722 123.096 80.7379 115.091C80.7379 115.091 66.5897 112.134 55.9713 112.71C55.3802 112.745 54.7988 112.789 54.2169 112.854C53.6351 112.919 53.2941 112.951 52.8422 113.019C52.0108 113.171 51.2293 113.525 50.5654 114.048C49.9016 114.571 49.3757 115.249 49.0333 116.021C42.6294 128.07 54.3556 171.668 54.3556 171.668Z" fill="#9287E1"/>
<path d="M84.36 135.162C80.4762 133.711 76.6135 132.22 72.7289 130.799C70.9079 130.005 68.9292 129.639 66.9447 129.729C66.0702 129.793 65.2239 130.065 64.4772 130.525C63.7305 130.985 63.1055 131.617 62.655 132.369C61.936 133.813 61.5854 135.412 61.6342 137.024C61.5858 138.894 61.7471 140.779 61.8889 142.643C62.1964 146.719 62.7158 150.775 63.445 154.797C64.2768 159.38 65.35 163.909 66.5841 168.403C66.6384 168.624 66.3054 168.736 66.2411 168.514C63.8737 160.18 62.2896 151.642 61.5092 143.013C61.351 141.008 61.1928 139.004 61.2246 137.004C61.1952 135.47 61.4902 133.947 62.0905 132.535C63.6977 129.185 67.6072 128.866 70.8052 129.759C73.0494 130.397 75.2259 131.334 77.4155 132.151L84.4693 134.804C84.6874 134.88 84.5189 135.206 84.311 135.12L84.36 135.162Z" fill="#313131"/>
<path d="M52.1807 169.121L71.5312 166.26L72.3945 170.784L53.1468 173.537L52.1807 169.121Z" fill="#E19B9C"/>
<path d="M84.9814 140.53C86.4739 134.393 87.7841 128.218 88.9119 122.005C88.9183 121.755 88.5687 121.736 88.522 121.995C87.4219 128.169 86.116 134.307 84.6043 140.41C84.5479 140.658 84.9149 140.778 84.9811 140.54L84.9814 140.53Z" fill="#313131"/>
<path d="M86.3226 121.168C86.2761 122.967 85.1835 124.599 85.2466 126.412C85.2328 126.994 85.394 127.567 85.7095 128.057C86.025 128.547 86.4802 128.93 87.0162 129.158C87.254 129.245 87.3738 128.868 87.136 128.781C85.6199 128.222 85.4863 126.428 85.7916 125.065C86.2147 123.803 86.5261 122.505 86.7222 121.188C86.7236 121.135 86.7039 121.084 86.6673 121.045C86.6308 121.007 86.5805 120.984 86.5275 120.983C86.4745 120.982 86.4231 121.001 86.3846 121.038C86.3461 121.074 86.3238 121.125 86.3224 121.178L86.3226 121.168Z" fill="#313131"/>
<path d="M77.6019 90.9321C77.6019 90.9321 54.9842 90.937 52.7721 89.8294C50.56 88.7218 42.1957 59.7857 42.1957 59.7857L45.4882 58.9606L58.7887 81.5322L76.7529 79.2861L77.6019 90.9321Z" fill="#E19B9C"/>
<path d="M39.2309 57.2282C39.9633 56.5086 40.6267 55.722 41.2123 54.8786L42.5294 55.783C42.5294 55.783 41.2688 49.9885 42.4284 51.1789C43.588 52.3693 43.8597 54.627 45.2099 56.1825C46.1214 57.3832 46.7676 58.7638 47.1058 60.2329C47.1058 60.2329 48.0963 64.0898 44.6084 63.5794C42.9838 63.3473 39.9486 61.5782 37.2261 59.7072C37.8684 58.8535 38.5204 58.0101 39.2309 57.2282Z" fill="#E19B9C"/>
<path d="M42.098 55.4417C42.098 55.4417 37.9717 50.9935 35.9683 50.7116C34.6927 50.5285 38.875 54.358 38.875 54.358C38.875 54.358 34.8501 51.4029 33.9359 51.9394C33.0217 52.4759 37.3311 55.6485 37.3311 55.6485C37.3311 55.6485 32.9752 53.115 32.5001 53.6929C32.025 54.2708 36.4963 57.3675 36.4963 57.3675C36.4963 57.3675 33.3077 56.1146 32.5822 56.706C31.8566 57.2974 38.6715 60.6749 38.6715 60.6749L42.098 55.4417Z" fill="#E19B9C"/>
<path d="M39.3248 54.3696C38.0705 55.2025 37.1548 56.4559 36.7426 57.904C36.6659 58.1621 37.0616 58.3324 37.1385 58.0643C37.5236 56.6869 38.3927 55.4946 39.5862 54.7065C39.8103 54.5522 39.5489 54.2154 39.3248 54.3696Z" fill="#313131"/>
<path d="M40.8015 57.999C41.8017 58.1079 42.7241 58.5897 43.3849 59.3484C44.0456 60.1071 44.3962 61.087 44.3668 62.0926C44.3598 62.3625 44.7815 62.3034 44.7882 62.0435C44.8081 60.9536 44.4208 59.8954 43.702 59.0758C42.9833 58.2562 41.9847 57.7341 40.9015 57.6115C40.6316 57.6045 40.5713 58.0031 40.8907 58.0313L40.8015 57.999Z" fill="#313131"/>
<path d="M58.597 81.5973C58.3046 82.3581 57.8263 83.0336 57.2057 83.562C57.0316 83.7176 57.2751 83.9739 57.4492 83.8184C58.1116 83.2565 58.6222 82.537 58.9338 81.7261C59.0192 81.5182 58.6816 81.4195 58.5962 81.6274L58.597 81.5973Z" fill="#313131"/>
<path d="M58.319 82.2903C58.3024 82.9301 58.2859 83.5699 58.2693 84.2097C58.2778 84.2492 58.2993 84.2847 58.3303 84.3105C58.3614 84.3363 58.4003 84.351 58.4407 84.352C58.4811 84.3531 58.5207 84.3405 58.553 84.3163C58.5854 84.2921 58.6087 84.2578 58.6192 84.2187L58.6689 82.2994C58.6701 82.2517 58.6523 82.2054 58.6194 82.1707C58.5866 82.1361 58.5413 82.116 58.4936 82.1148C58.4459 82.1136 58.3996 82.1313 58.365 82.1642C58.3304 82.197 58.3102 82.2423 58.309 82.2901L58.319 82.2903Z" fill="#313131"/>
<path d="M103.419 76.305C101.907 73.2648 88.8609 71.7869 88.8609 71.7869L81.9282 73.348C81.9282 73.348 77.4462 77.2334 74.0731 79.627C74.1612 83.0544 74.7892 86.4466 75.9337 89.6785C77.8682 95.3304 78.7333 109.447 75.1413 114.116C75.1413 114.116 88.2739 121.918 106.594 111.709C103.45 107.645 101.752 102.648 101.77 97.5094C101.688 88.6743 104.618 78.6668 103.419 76.305Z" fill="white"/>
<path d="M78.1464 87.2848C80.6432 87.5035 83.1583 87.2039 85.5339 86.4047C87.9095 85.6054 90.0943 84.3239 91.9512 82.6404C92.1152 82.4846 91.8718 82.2282 91.6977 82.3838C89.8726 84.0265 87.7276 85.2743 85.3974 86.0489C83.0673 86.8235 80.6021 87.1082 78.1567 86.885C77.9268 86.8791 77.918 87.2189 78.1474 87.2449L78.1464 87.2848Z" fill="#313131"/>
<path d="M79.0355 101.633C83.5685 102.132 88.1464 101.246 92.1657 99.0915C92.2029 99.0665 92.2294 99.0284 92.24 98.9848C92.2507 98.9412 92.2446 98.8952 92.2231 98.8559C92.2016 98.8165 92.1661 98.7866 92.1237 98.772C92.0813 98.7574 92.0349 98.7592 91.9937 98.777C88.0275 100.906 83.5084 101.779 79.0346 101.283C78.8147 101.277 78.8059 101.617 79.0255 101.632L79.0355 101.633Z" fill="#313131"/>
<path d="M100.033 86.1707C99.1932 89.2114 98.8714 92.3717 99.0804 95.5192C99.0833 98.4765 99.5368 101.416 100.425 104.237C100.5 104.449 100.852 104.368 100.778 104.146C99.8934 101.359 99.439 98.4526 99.4303 95.5282C99.2318 92.4113 99.5493 89.283 100.37 86.2695C100.446 86.0514 100.098 85.9523 100.033 86.1707V86.1707Z" fill="#313131"/>
<path d="M74.8124 85.8482C74.8124 85.8482 75.7539 88.1233 73.7926 92.0139C71.4205 96.7041 77.4457 99.6709 78.8217 100.617C80.1977 101.563 74.8124 85.8482 74.8124 85.8482Z" fill="white"/>
<path d="M81.9209 73.628C82.2606 79.8288 89.9159 73.9249 91.6461 72.7792L90.1492 66.0683L90.0575 64.9756L90.0107 64.4642L89.8882 63.0105L83.6234 66.2095L83.1618 68.1983L83.0599 68.6558L82.5183 71.0326L81.9209 73.628Z" fill="#E19B9C"/>
<path d="M92.1668 72.3726C91.1086 74.3801 89.9224 76.3174 88.6156 78.1727C87.4028 79.8119 85.8621 81.7527 83.9499 82.5835C83.5905 82.7879 83.1855 82.8989 82.7721 82.9062C82.3587 82.9134 81.95 82.8168 81.5837 82.6251C81.2173 82.4335 80.9049 82.1529 80.6751 81.8091C80.4453 81.4654 80.3055 81.0694 80.2685 80.6576C80.069 78.2766 80.4537 75.8829 81.3893 73.6843C81.496 73.4269 81.913 73.5477 81.8063 73.8051C81.005 75.78 80.6101 77.8961 80.6449 80.0271C80.6854 81.1685 81.0958 82.3196 82.4135 82.4237C83.4946 82.3944 84.5203 81.9391 85.2673 81.1571C88.1313 78.7203 89.9884 75.3773 91.7931 72.1229C91.9293 71.8863 92.293 72.1358 92.1573 72.3524L92.1668 72.3726Z" fill="white"/>
<path d="M88.3944 66.233C85.5688 71.0515 82.986 72.6752 82.1696 72.5241L83.1718 68.1985L88.3944 66.233Z" fill="#2C2D3E"/>
<path d="M78.8669 61.3749C78.1743 66.4887 79.6355 68.3971 83.0299 68.655C83.409 68.6846 83.7894 68.6945 84.1696 68.6845C86.0401 68.4953 87.7705 67.6078 89.0155 66.199L89.5626 65.5429L90.0272 64.9848C90.2029 64.7692 90.3682 64.5635 90.5136 64.3572C91.103 63.5601 91.5523 62.6685 91.8423 61.7206C92.8057 58.8946 95.4058 52.7398 85.2118 52.376C83.1606 52.289 81.1556 53.0009 79.6185 54.362C79.5493 54.4115 79.4843 54.4667 79.4242 54.527C78.4998 55.8435 79.388 57.8572 78.8669 61.3749Z" fill="#E19B9C"/>
<path d="M84.2065 58.7521C84.4159 58.6661 84.6507 58.666 84.8601 58.7519C85.0695 58.8379 85.2365 59.0029 85.325 59.2112C85.4536 59.6547 86.1675 59.5131 86.0289 59.0693C85.9721 58.8684 85.8753 58.681 85.7442 58.5184C85.6131 58.3558 85.4506 58.2214 85.2662 58.1232C85.0819 58.025 84.8797 57.965 84.6716 57.9469C84.4635 57.9289 84.254 57.953 84.0555 58.0179C83.6117 58.1565 83.7433 58.8702 84.1871 58.7316L84.2065 58.7521Z" fill="#2C2D3E"/>
<path d="M79.9984 59.0133C80.3071 58.6812 80.6894 58.2109 81.1853 58.3738C81.276 58.4067 81.376 58.4021 81.4634 58.3613C81.5507 58.3204 81.6182 58.2465 81.6511 58.1558C81.684 58.0651 81.6794 57.9651 81.6386 57.8777C81.5977 57.7904 81.5238 57.7229 81.4331 57.69C81.074 57.6118 80.6998 57.6435 80.359 57.781C80.0183 57.9185 79.7268 58.1554 79.5225 58.4608C79.2138 58.7929 79.6797 59.3452 79.9984 59.0133Z" fill="#2C2D3E"/>
<path d="M84.6503 60.5442C84.4711 60.5151 84.2872 60.5449 84.1264 60.6291C83.9655 60.7133 83.8362 60.8474 83.7579 61.0113C83.6215 61.2578 83.2581 60.9983 83.3937 60.7818C83.5189 60.536 83.7219 60.3385 83.9711 60.2201C84.2202 60.1017 84.5015 60.069 84.7711 60.1272C85.0495 60.1944 84.9187 60.6112 84.6503 60.5442Z" fill="#2C2D3E"/>
<path d="M80.0212 60.0643C80.296 60.0204 80.5776 60.0687 80.8221 60.2017C81.0666 60.3347 81.2602 60.5449 81.3726 60.7995C81.4964 61.0428 81.1108 61.2529 80.9873 60.9996C80.9208 60.8318 80.8007 60.6906 80.6458 60.598C80.4908 60.5053 80.3096 60.4664 80.1303 60.4873C79.8488 60.54 79.7497 60.1173 80.0212 60.0643V60.0643Z" fill="#2C2D3E"/>
<path d="M85.0519 63.9658C85.7307 63.9833 86.3886 63.7305 86.8809 63.263C87.3733 62.7955 87.6597 62.1516 87.6773 61.4728C87.6949 60.7941 87.4421 60.1362 86.9746 59.6438C86.5071 59.1515 85.8631 58.865 85.1844 58.8475C84.5057 58.8299 83.8478 59.0827 83.3554 59.5502C82.8631 60.0177 82.5766 60.6617 82.559 61.3404C82.5415 62.0191 82.7942 62.677 83.2618 63.1694C83.7293 63.6617 84.3732 63.9482 85.0519 63.9658ZM85.1769 59.1374C85.7787 59.1529 86.3497 59.407 86.7643 59.8435C87.1788 60.2801 87.403 60.8635 87.3874 61.4653C87.3718 62.0672 87.1178 62.6382 86.6812 63.0527C86.2447 63.4673 85.6613 63.6914 85.0594 63.6758C84.4576 63.6603 83.8866 63.4063 83.472 62.9697C83.0575 62.5331 82.8333 61.9497 82.8489 61.3479C82.8645 60.7461 83.1185 60.175 83.5551 59.7605C83.9917 59.3459 84.575 59.1218 85.1769 59.1374V59.1374Z" fill="white"/>
<path d="M78.9547 63.7779C79.6318 63.7928 80.2872 63.5388 80.7773 63.0715C81.2675 62.6042 81.5526 61.9618 81.5701 61.2848C81.5876 60.6087 81.3358 59.9533 80.8701 59.4629C80.4044 58.9725 79.763 58.6871 79.0869 58.6696C78.4099 58.6521 77.7536 58.9036 77.2615 59.3689C76.7695 59.8343 76.482 60.4756 76.4618 61.1526C76.4442 61.8313 76.697 62.4892 77.1645 62.9815C77.632 63.4739 78.276 63.7604 78.9547 63.7779ZM79.0794 58.9595C79.6786 58.975 80.2471 59.228 80.6598 59.6626C81.0725 60.0973 81.2957 60.6781 81.2802 61.2773C81.2647 61.8774 81.0121 62.4469 80.5776 62.8612C80.1432 63.2755 79.5624 63.5009 78.9622 63.488C78.3604 63.4725 77.7894 63.2184 77.3748 62.7819C76.9603 62.3453 76.7361 61.7619 76.7517 61.1601C76.7699 60.56 77.025 59.9916 77.4612 59.5792C77.8975 59.1668 78.4793 58.944 79.0794 58.9595Z" fill="white"/>
<path d="M82.1545 62.2802L82.0946 62.2786L81.2809 61.6374C81.2706 61.6208 81.2653 61.6015 81.2658 61.582C81.2663 61.5624 81.2726 61.5435 81.2837 61.5274C81.2885 61.5068 81.2986 61.4878 81.3131 61.4724C81.3275 61.457 81.3458 61.4456 81.366 61.4395L82.163 61.1801L82.5637 60C82.5684 59.9851 82.5763 59.9713 82.5868 59.9597C82.5973 59.9481 82.6102 59.9388 82.6246 59.9326C82.6389 59.9263 82.6545 59.9232 82.6701 59.9234C82.6858 59.9236 82.7013 59.9272 82.7154 59.9339C82.7304 59.9387 82.7441 59.9466 82.7558 59.9571C82.7674 59.9676 82.7767 59.9804 82.7829 59.9948C82.7892 60.0092 82.7923 60.0247 82.792 60.0404C82.7918 60.0561 82.7882 60.0715 82.7815 60.0857L82.3696 61.3154C82.3642 61.3346 82.3538 61.352 82.3393 61.3657C82.3249 61.3795 82.307 61.389 82.2875 61.3933L81.6521 61.597L82.2894 62.0936C82.3003 62.1051 82.3089 62.1185 82.3145 62.1333C82.3202 62.148 82.3229 62.1637 82.3225 62.1795C82.3221 62.1953 82.3186 62.2109 82.3122 62.2253C82.3057 62.2397 82.2965 62.2527 82.285 62.2636C82.2673 62.2787 82.2455 62.2884 82.2223 62.2913C82.1991 62.2943 82.1756 62.2904 82.1545 62.2802V62.2802Z" fill="#2C2D3E"/>
<path d="M82.6024 61.2114C82.4348 61.1061 82.2398 61.0529 82.042 61.0584C81.8442 61.064 81.6525 61.1281 81.4912 61.2427C81.3791 61.3198 81.2741 61.127 81.3861 61.0499C81.5839 60.9229 81.813 60.8532 82.0481 60.8487C82.2831 60.8442 82.5147 60.905 82.7172 61.0243C82.8354 61.0974 82.7108 61.2742 82.6024 61.2114V61.2114Z" fill="white"/>
<path d="M89.3646 59.6659C89.0125 59.6735 88.668 59.7696 88.3628 59.9453C88.0576 60.1209 87.8015 60.3705 87.618 60.671C87.5449 60.7892 87.3581 60.6643 87.4409 60.5564C87.6429 60.2238 87.9257 59.9476 88.263 59.7534C88.6003 59.5593 88.9812 59.4535 89.3703 59.446C89.5102 59.4496 89.5048 59.6595 89.3646 59.6659Z" fill="white"/>
<path d="M78.8824 60.7751C78.476 60.7079 78.0587 60.7617 77.6826 60.9298C77.3065 61.098 76.9882 61.373 76.7673 61.7207C76.7511 61.7435 76.7269 61.7594 76.6995 61.765C76.6722 61.7706 76.6437 61.7656 76.6198 61.751C76.596 61.7364 76.5787 61.7132 76.5713 61.6862C76.5639 61.6593 76.5671 61.6305 76.5802 61.6058C76.821 61.2246 77.1673 60.9216 77.577 60.7333C77.9867 60.545 78.4423 60.4797 78.8884 60.5452C79.0183 60.5485 79.0224 60.7787 78.8827 60.7651L78.8824 60.7751Z" fill="white"/>
<path d="M88.9513 64.4267C89.1161 64.8221 89.3318 65.1942 89.5929 65.5337C89.7419 65.7463 89.9309 65.9279 90.1492 66.0683L90.0575 64.9755C90.2331 64.76 90.3985 64.5542 90.5439 64.3479C90.3723 64.4108 90.1929 64.4499 90.0107 64.4642C89.6572 64.4865 89.3024 64.4739 88.9513 64.4267V64.4267Z" fill="#2C2D3E"/>
<path d="M81.6285 65.9879C81.8187 66.0879 82.0332 66.1326 82.2475 66.1169C82.4618 66.1012 82.6675 66.0258 82.8412 65.8992C83.025 65.7539 82.7821 65.4775 82.5982 65.6228C82.4692 65.7005 82.3207 65.7398 82.1702 65.7359C82.0196 65.732 81.8733 65.6851 81.7485 65.6008C81.5409 65.5054 81.4119 65.8522 81.6298 65.9379L81.6285 65.9879Z" fill="#7A3B3C"/>
<path d="M86.6329 62.016C86.6248 62.3259 86.1193 62.5329 85.5403 62.4879C84.9613 62.4429 84.5481 62.1721 84.5562 61.8622C84.5642 61.5523 85.0694 61.3553 85.6485 61.4003C86.2275 61.4453 86.6506 61.7164 86.6329 62.016Z" fill="#D9665E"/>
<path d="M80.5941 61.8897C80.5864 62.1896 80.0806 62.4066 79.5016 62.3616C79.2578 62.3495 79.02 62.2817 78.8065 62.1636C78.8129 61.9136 78.8199 61.6438 78.8969 61.3757C79.1149 61.3123 79.3424 61.2877 79.569 61.303C80.159 61.3083 80.6119 61.5901 80.5941 61.8897Z" fill="#D9665E"/>
<path d="M92.4391 53.7334C89.3438 51.1925 83.5546 49.152 79.1964 53.2807C77.3228 53.7824 78.9208 58.9054 79.0147 57.5974C79.2538 54.5426 80.7404 52.7604 81.3674 53.657C81.3674 53.657 86.5025 59.7118 89.8775 59.5591C89.8775 59.5591 90.4319 62.1043 92.3011 62.9329C93.0401 61.5165 93.4375 59.9469 93.4615 58.3495C93.4854 56.7521 93.1353 55.1713 92.4391 53.7334V53.7334Z" fill="#D9665E"/>
<path d="M80.4351 63.3961C81.7153 63.6098 83.0251 63.5689 84.2895 63.2758C84.2895 63.2758 83.9206 65.547 82.0738 65.3992C80.5067 65.2686 80.4351 63.3961 80.4351 63.3961Z" fill="white"/>
<path d="M87.8269 63.0372C87.7355 62.664 87.73 62.2749 87.8107 61.8993C87.8915 61.5236 88.0564 61.1712 88.2931 60.8685C88.9041 60.0641 90.0158 58.8524 90.9809 59.0575C92.3937 59.3541 92.4705 60.6365 92.2372 61.9209C92.0039 63.2053 91.03 64.8907 89.2709 64.445C88.9177 64.3801 88.5918 64.2116 88.3346 63.9609C88.0775 63.7102 87.9007 63.3886 87.8269 63.0372V63.0372Z" fill="#E19B9C"/>
<path d="M90.0427 67.0959C90.0722 67.0947 90.1005 67.0835 90.1229 67.064C90.1452 67.0446 90.1602 67.0181 90.1655 66.989L90.3461 63.8726C90.3479 63.8587 90.3467 63.8446 90.3427 63.8312C90.3386 63.8178 90.3318 63.8053 90.3226 63.7947C90.3135 63.7841 90.3022 63.7756 90.2895 63.7696C90.2768 63.7636 90.263 63.7604 90.249 63.7601C90.2346 63.7584 90.22 63.7595 90.206 63.7634C90.192 63.7673 90.1789 63.774 90.1676 63.783C90.1562 63.792 90.1467 63.8032 90.1396 63.8159C90.1326 63.8285 90.1281 63.8425 90.1265 63.857L89.9455 66.9833C89.9467 67.0103 89.9569 67.036 89.9746 67.0564C89.9922 67.0769 90.0162 67.0908 90.0427 67.0959V67.0959Z" fill="white"/>
<path d="M90.9774 67.3102C90.9483 67.552 90.8245 67.7725 90.6331 67.9232C90.4416 68.0739 90.1982 68.1425 89.9563 68.114C89.7155 68.0824 89.4966 67.958 89.3464 67.7671C89.1962 67.5763 89.1266 67.3343 89.1524 67.0929C89.1887 66.855 89.3148 66.6402 89.5047 66.4925C89.6946 66.3448 89.9339 66.2756 90.1733 66.299C90.2927 66.3122 90.4083 66.3488 90.5134 66.4068C90.6186 66.4649 90.7112 66.5431 90.7859 66.6371C90.8607 66.7311 90.9161 66.839 90.9489 66.9545C90.9818 67.07 90.9915 67.1909 90.9774 67.3102V67.3102Z" fill="white"/>
<path d="M89.6912 62.8954C89.6122 62.3574 89.6711 61.8082 89.8625 61.2993C90.0541 60.8541 90.6007 60.218 91.1753 60.4329C91.3635 60.5078 91.5109 60.2215 91.3228 60.1466C91.0539 60.0669 90.7665 60.0756 90.5029 60.1715C90.2394 60.2673 90.0135 60.4452 89.8585 60.6789C89.4122 61.3337 89.2373 62.136 89.3705 62.9171C89.3694 62.9595 89.3852 63.0006 89.4144 63.0314C89.4436 63.0621 89.4839 63.0801 89.5263 63.0812C89.5687 63.0823 89.6098 63.0664 89.6406 63.0372C89.6714 63.008 89.6893 62.9678 89.6904 62.9253L89.6912 62.8954Z" fill="#2C2D3E"/>
<path d="M103.895 81.0889C103.895 81.0889 109.418 60.9551 108.999 58.5734C108.581 56.1918 98.0876 34.5331 98.0876 34.5331L94.1058 36.1006L99.8268 60.4868L92.91 76.1231C92.3293 82.3302 99.1058 84.4862 103.895 81.0889Z" fill="#E19B9C"/>
<path d="M96.6195 28.6432C95.5998 28.7648 94.5711 28.7917 93.5464 28.7237C93.4719 29.6721 93.4351 30.3213 93.4351 30.3213C93.4351 30.3213 89.6828 25.7228 89.8903 27.3687C90.0978 29.0146 91.6963 30.6365 92.0739 32.6669C92.4419 34.1231 93.116 35.4842 94.0513 36.6594C94.0513 36.6594 96.4498 39.8425 98.2299 36.7675C99.0566 35.3585 99.5668 31.8805 99.8021 28.5855C98.7217 28.5875 97.6718 28.5703 96.6195 28.6432Z" fill="#E19B9C"/>
<path d="M93.4293 29.771C93.4293 29.771 92.5148 23.7453 93.5498 22.0215C94.2085 20.9182 94.5819 26.5897 94.5819 26.5897C94.5819 26.5897 94.7813 21.5932 95.7213 21.2174C96.6613 20.8416 96.5132 26.1795 96.5132 26.1795C96.5132 26.1795 97.2423 21.1967 97.9921 21.2161C98.7418 21.2355 98.3722 26.6278 98.3722 26.6278C98.3722 26.6278 99.3875 23.3429 100.293 23.1463C101.198 22.9496 99.6055 30.3809 99.6055 30.3809L93.4293 29.771Z" fill="#E19B9C"/>
<path d="M94.4436 27.2964C95.7979 26.8683 97.2601 26.9345 98.5702 27.4832C98.5925 27.4984 98.618 27.5084 98.6447 27.5124C98.6714 27.5164 98.6987 27.5143 98.7245 27.5063C98.7503 27.4984 98.774 27.4847 98.7938 27.4663C98.8136 27.448 98.829 27.4254 98.8389 27.4003C98.8488 27.3751 98.8529 27.3481 98.8509 27.3211C98.8489 27.2942 98.8409 27.268 98.8274 27.2446C98.8139 27.2212 98.7954 27.2011 98.7731 27.1859C98.7508 27.1706 98.7254 27.1606 98.6987 27.1565C97.303 26.5678 95.7419 26.5025 94.302 26.9727C94.08 27.0469 94.2216 27.3707 94.4436 27.2964Z" fill="#313131"/>
<path d="M95.9107 30.1353C95.3175 31.0582 95.0941 32.1708 95.2849 33.2511C95.4757 34.3314 96.0668 35.3001 96.9402 35.9639C96.9793 35.9915 97.0277 36.0023 97.0748 35.9942C97.1219 35.986 97.1639 35.9595 97.1914 35.9204C97.219 35.8813 97.2299 35.8329 97.2217 35.7858C97.2136 35.7387 97.187 35.6967 97.1479 35.6692C96.3526 35.0606 95.8145 34.1757 95.64 33.1895C95.4654 32.2034 95.6672 31.1876 96.2054 30.343C96.3303 30.1562 96.0355 29.9485 95.9107 30.1353V30.1353Z" fill="#313131"/>
<path d="M99.9701 60.7506C100.817 60.5545 101.606 60.1601 102.271 59.5997C102.445 59.4441 102.212 59.168 102.038 59.3236C101.426 59.8445 100.7 60.2131 99.9191 60.3991C99.6977 60.4534 99.7486 60.8048 99.9701 60.7506V60.7506Z" fill="#313131"/>
<path d="M100.604 60.6169L102.509 60.8363C102.556 60.8375 102.603 60.8197 102.637 60.7869C102.672 60.754 102.692 60.7087 102.693 60.661C102.695 60.6133 102.677 60.567 102.644 60.5324C102.611 60.4978 102.566 60.4776 102.518 60.4764L100.603 60.2568C100.383 60.2511 100.344 60.5902 100.594 60.6167L100.604 60.6169Z" fill="#313131"/>
<path d="M43.1963 64.4131C44.0924 64.7495 45.0771 64.7658 45.9838 64.4593C46.8905 64.1528 47.6633 63.5423 48.1715 62.7313C48.4115 62.3473 47.8008 61.9814 47.5508 62.3651C47.1245 63.0396 46.4747 63.5427 45.7149 63.7864C44.9552 64.0301 44.1339 63.9988 43.3949 63.698C42.9692 63.527 42.7711 64.2221 43.1971 64.3831L43.1963 64.4131Z" fill="white"/>
</g>
</g>
<defs>
<radialGradient id="paint0_radial_1659_9929" cx="0" cy="0" r="1" gradientUnits="userSpaceOnUse" gradientTransform="translate(113.5 77) rotate(143.679) scale(114.805 109.22)">
<stop offset="0.4375" stop-color="#D9D9D9"/>
<stop offset="1" stop-color="#D9D9D9" stop-opacity="0"/>
</radialGradient>
<clipPath id="clip0_1659_9929">
<rect width="150" height="250" fill="white"/>
</clipPath>
</defs>
</svg>
