<svg width="150" height="250" viewBox="0 0 150 250" fill="none" xmlns="http://www.w3.org/2000/svg">
<g clip-path="url(#clip0_1659_10124)">
<mask id="mask0_1659_10124" style="mask-type:alpha" maskUnits="userSpaceOnUse" x="-22" y="-1" width="191" height="201">
<rect width="178.708" height="187.847" transform="matrix(-0.997723 -0.0674483 -0.0674483 0.997723 169 11.887)" fill="url(#paint0_radial_1659_10124)"/>
</mask>
<g mask="url(#mask0_1659_10124)">
<path d="M130.848 136.942C129.594 140.641 128.495 144.571 125.73 147.465C124.569 148.729 123.128 149.704 121.523 150.312C121.108 150.51 120.656 150.623 120.197 150.643C119.737 150.664 119.277 150.592 118.846 150.432C118.304 150.135 117.743 149.224 118.32 148.711C118.896 148.198 119.772 148.457 120.324 148.756C121.021 149.171 121.586 149.777 121.952 150.502C122.683 151.856 122.908 153.426 122.586 154.93C122.259 156.413 121.407 157.728 120.188 158.632C119.539 159.11 118.774 159.404 117.972 159.486C117.186 159.543 115.617 159.146 115.902 158.042C116.009 157.759 116.21 157.521 116.47 157.367C116.73 157.213 117.035 157.153 117.334 157.195C117.927 157.29 118.487 157.531 118.963 157.897C119.789 158.482 120.483 159.233 121.002 160.103C121.997 161.751 122.354 163.706 122.005 165.6C121.992 165.79 122.299 165.861 122.345 165.623C122.619 164.166 122.483 162.662 121.953 161.278C121.423 159.894 120.519 158.683 119.342 157.782C118.976 157.435 118.534 157.178 118.05 157.032C117.567 156.886 117.056 156.855 116.559 156.942C116.361 156.995 116.177 157.09 116.019 157.221C115.861 157.351 115.734 157.515 115.645 157.699C115.556 157.884 115.509 158.086 115.505 158.29C115.502 158.495 115.542 158.698 115.624 158.886C115.891 159.269 116.241 159.586 116.648 159.813C117.055 160.041 117.509 160.173 117.974 160.199C118.96 160.237 119.936 159.983 120.777 159.468C121.619 158.954 122.29 158.202 122.706 157.307C123.509 155.607 123.661 153.671 123.134 151.866C122.926 150.993 122.522 150.179 121.951 149.487C121.38 148.794 120.659 148.241 119.842 147.87C119.482 147.706 119.081 147.655 118.692 147.726C118.304 147.797 117.946 147.985 117.667 148.265C117.374 148.607 117.205 149.039 117.187 149.489C117.169 149.94 117.304 150.383 117.57 150.747C118.948 152.778 122.033 151.681 123.726 150.682C128.506 147.833 130.382 142.199 131.492 137.066C131.58 136.65 131.003 136.42 130.864 136.842L130.848 136.942Z" fill="#F9EDD4"/>
<path d="M16.9467 158.438C16.9687 158.642 16.9497 158.848 16.891 159.045C16.8322 159.241 16.7349 159.424 16.6045 159.583C16.4741 159.741 16.3134 159.872 16.1318 159.968C15.9502 160.063 15.7514 160.122 15.5469 160.139C15.1787 160.122 14.8288 159.973 14.5609 159.72C14.2929 159.467 14.1245 159.126 14.0862 158.759C14.0479 158.393 14.1422 158.024 14.352 157.721C14.5619 157.418 14.8733 157.2 15.23 157.107C15.6333 157.06 16.0389 157.173 16.3598 157.422C16.6807 157.671 16.8914 158.035 16.9467 158.438V158.438Z" fill="#9287E1"/>
<path d="M102.147 24.3501C102.18 24.6535 102.122 24.9598 101.98 25.2301C101.839 25.5005 101.62 25.7227 101.352 25.8688C101.084 26.0148 100.779 26.0781 100.475 26.0505C100.171 26.023 99.8822 25.9059 99.6448 25.7141C99.4075 25.5223 99.2324 25.2643 99.1417 24.9729C99.051 24.6816 99.0489 24.3698 99.1354 24.0772C99.222 23.7846 99.3935 23.5242 99.6281 23.3291C99.8627 23.134 100.15 23.0128 100.454 22.981C100.86 22.9385 101.266 23.0587 101.584 23.3154C101.901 23.572 102.104 23.9441 102.147 24.3501V24.3501Z" fill="#9287E1"/>
<path d="M29.214 -0.311899C29.2533 -0.00939356 29.2019 0.297951 29.0664 0.571255C28.931 0.844559 28.7174 1.07153 28.4529 1.22349C28.1885 1.37545 27.8848 1.44555 27.5805 1.42493C27.2762 1.40431 26.9848 1.29391 26.7432 1.10766C26.5016 0.921416 26.3207 0.667705 26.2233 0.378626C26.126 0.0895463 26.1165 -0.221922 26.1962 -0.516373C26.2758 -0.810823 26.4411 -1.07502 26.6709 -1.27557C26.9007 -1.47612 27.1849 -1.604 27.4874 -1.64303C27.6884 -1.6703 27.8927 -1.65739 28.0887 -1.60507C28.2846 -1.55274 28.4683 -1.46205 28.6289 -1.33822C28.7895 -1.2144 28.9239 -1.05992 29.0243 -0.883743C29.1248 -0.707566 29.1893 -0.513185 29.214 -0.311899Z" fill="#9287E1"/>
<path d="M23.6473 59.3194C23.6779 59.6227 23.6179 59.9282 23.4749 60.1974C23.3319 60.4666 23.1124 60.6874 22.8441 60.8319C22.5757 60.9765 22.2705 61.0382 21.9671 61.0094C21.6636 60.9805 21.3755 60.8624 21.1391 60.6699C20.9028 60.4774 20.7288 60.2192 20.6391 59.9279C20.5494 59.6365 20.5481 59.3251 20.6353 59.0331C20.7225 58.741 20.8943 58.4813 21.129 58.2868C21.3637 58.0923 21.6508 57.9717 21.954 57.9403C22.1558 57.9194 22.3597 57.9385 22.5541 57.9966C22.7485 58.0546 22.9295 58.1504 23.0868 58.2785C23.2441 58.4066 23.3746 58.5645 23.4707 58.7431C23.5669 58.9217 23.6269 59.1175 23.6473 59.3194V59.3194Z" fill="#9287E1"/>
<path d="M49.6823 69.1086C49.7032 69.3104 49.6841 69.5143 49.6261 69.7086C49.5681 69.903 49.4722 70.0841 49.3441 70.2414C49.216 70.3987 49.0582 70.5291 48.8796 70.6253C48.7009 70.7215 48.5051 70.7815 48.3033 70.8018C47.935 70.7844 47.5852 70.6356 47.3172 70.3824C47.0492 70.1292 46.8808 69.7884 46.8425 69.4218C46.8042 69.0551 46.8985 68.6868 47.1084 68.3837C47.3182 68.0806 47.6297 67.8627 47.9863 67.7695C48.3876 67.7286 48.7891 67.8455 49.1057 68.0954C49.4222 68.3454 49.6291 68.7088 49.6823 69.1086V69.1086Z" fill="#9287E1"/>
<path d="M132.472 72.3869C132.504 72.6903 132.446 72.9966 132.305 73.2669C132.163 73.5373 131.945 73.7595 131.677 73.9056C131.409 74.0516 131.103 74.1149 130.799 74.0873C130.495 74.0598 130.207 73.9427 129.969 73.7509C129.732 73.559 129.557 73.3011 129.466 73.0097C129.375 72.7183 129.373 72.4066 129.46 72.114C129.546 71.8214 129.718 71.561 129.953 71.3659C130.187 71.1707 130.474 71.0496 130.778 71.0178C131.184 70.9753 131.59 71.0955 131.908 71.3522C132.225 71.6088 132.428 71.9809 132.472 72.3869V72.3869Z" fill="#9287E1"/>
<path d="M57.9725 31.2496C58.0285 31.4642 58.0375 31.6882 57.999 31.9066C57.9605 32.1249 57.8753 32.3323 57.7494 32.5148C57.6235 32.6972 57.4597 32.8504 57.2692 32.9638C57.0787 33.0772 56.8659 33.1482 56.6455 33.172C56.4251 33.1957 56.2022 33.1717 55.9919 33.1014C55.7816 33.0312 55.5889 32.9165 55.427 32.7651C55.2651 32.6137 55.1377 32.4291 55.0536 32.224C54.9694 32.0189 54.9305 31.7981 54.9395 31.5765C54.9544 31.2072 55.1015 30.8555 55.3539 30.5855C55.6064 30.3155 55.9475 30.1451 56.3151 30.1055C56.6826 30.0659 57.0521 30.1597 57.3563 30.3697C57.6606 30.5797 57.8792 30.8919 57.9725 31.2496V31.2496Z" fill="#9287E1"/>
<path d="M21.5926 111.982L18.4011 107.973L13.2785 108.329L16.1074 104.044L14.1808 99.2868L19.1266 100.655L23.053 97.3574L23.2887 102.482L27.641 105.205L22.8329 106.998L21.5926 111.982Z" fill="#E19B9C"/>
<path d="M109.415 57.8812L111.883 55.5189L115.228 56.2168L113.751 53.136L115.446 50.1795L112.063 50.6333L109.765 48.1093L109.157 51.4605L106.041 52.8658L109.053 54.4845L109.415 57.8812Z" fill="#E19B9C"/>
<path d="M128.339 31.0787C127.885 32.1876 127.656 33.3761 127.666 34.5745C127.677 35.7729 127.926 36.9572 128.399 38.0581C128.846 39.0061 129.533 39.8207 130.392 40.4211C131.251 41.0214 132.253 41.3866 133.297 41.4804C135.065 41.5999 137.789 40.1983 136.701 38.0372C136.473 37.6365 136.156 37.2937 135.774 37.0352C135.392 36.7768 134.956 36.6096 134.5 36.5467C134.043 36.4839 133.578 36.5269 133.141 36.6725C132.703 36.8182 132.305 37.0625 131.978 37.3867C130.456 38.8193 129.861 41.3786 129.906 43.3889C129.867 44.4717 130.118 45.5453 130.632 46.4991C131.146 47.4529 131.905 48.2525 132.831 48.8156C134.496 49.721 137.13 49.7988 138.248 47.9674C138.49 47.5537 138.576 47.0668 138.49 46.595C138.404 46.1232 138.152 45.6979 137.779 45.3965C137.348 45.0499 136.825 44.8361 136.275 44.7811C135.724 44.726 135.17 44.8322 134.679 45.0865C133.608 45.6101 132.73 46.4597 132.172 47.5132C131.614 48.5668 131.405 49.7701 131.574 50.9502C131.743 52.1303 132.281 53.2265 133.112 54.0812C133.943 54.936 135.024 55.5054 136.199 55.7075C136.664 55.7991 136.84 54.978 136.366 54.8657C135.59 54.7101 134.865 54.3631 134.256 53.8562C133.648 53.3494 133.176 52.6987 132.882 51.9631C132.589 51.2276 132.484 50.4305 132.577 49.6441C132.67 48.8577 132.958 48.107 133.414 47.46C133.873 46.8 134.514 46.2886 135.26 45.989C135.493 45.8872 135.744 45.8346 135.998 45.8345C136.252 45.8344 136.503 45.8868 136.735 45.9883C136.969 46.0948 137.157 46.2826 137.263 46.5168C137.369 46.751 137.386 47.0157 137.312 47.2618C137.124 47.5615 136.867 47.8108 136.561 47.9879C136.255 48.1649 135.91 48.2642 135.557 48.2773C134.776 48.3396 133.996 48.157 133.324 47.755C130.524 46.1204 130.424 41.6575 131.843 39.0738C132.541 37.8162 134.19 36.7333 135.327 38.1751C136.464 39.6169 133.915 40.1974 132.909 40.0892C132.046 39.9644 131.233 39.6121 130.552 39.0686C129.871 38.5252 129.346 37.8101 129.033 36.9969C128.412 35.1175 128.347 33.0989 128.844 31.1831C128.864 30.8834 128.447 30.815 128.339 31.0787V31.0787Z" fill="#F9EDD4"/>
<path d="M35.9239 30.0401C36.8853 30.7558 37.6943 31.656 38.3035 32.6881C38.9127 33.7202 39.3099 34.8634 39.4719 36.0509C39.5765 37.0913 39.4078 38.141 38.9824 39.0962C38.557 40.0514 37.8896 40.879 37.0463 41.4973C35.5647 42.4811 32.5377 42.718 32.3595 40.3073C32.3487 39.8473 32.4437 39.391 32.6373 38.9735C32.8308 38.5561 33.1176 38.1886 33.4756 37.8996C33.8336 37.6106 34.2532 37.4076 34.702 37.3064C35.1509 37.2052 35.617 37.2085 36.0644 37.316C38.1015 37.7648 39.9215 39.6442 40.9377 41.389C41.5259 42.2991 41.8622 43.3488 41.9125 44.4312C41.9627 45.5136 41.725 46.59 41.2237 47.5506C40.2604 49.1816 38.0063 50.605 36.1462 49.6161C35.7227 49.3873 35.3958 49.0136 35.2253 48.5634C35.0548 48.1132 35.0522 47.6166 35.2179 47.1647C35.4163 46.6514 35.7574 46.2057 36.2009 45.88C36.6443 45.5543 37.1717 45.3623 37.7208 45.3266C38.9087 45.2233 40.0987 45.4993 41.1198 46.1148C42.1409 46.7304 42.9406 47.6539 43.4039 48.7525C43.8672 49.8511 43.9702 51.0683 43.6982 52.2292C43.4262 53.3901 42.7931 54.4348 41.89 55.2133C41.5373 55.5307 40.9564 54.9193 41.3104 54.582C41.8972 54.0481 42.3411 53.3761 42.6018 52.6269C42.8625 51.8777 42.9316 51.0752 42.803 50.2925C42.6744 49.5097 42.3521 48.7716 41.8653 48.1452C41.3786 47.5189 40.7429 47.0242 40.0162 46.7062C39.2875 46.3769 38.4778 46.2698 37.6885 46.3983C37.4355 46.4305 37.192 46.5154 36.9739 46.6477C36.7558 46.7799 36.5678 46.9564 36.4222 47.1658C36.2767 47.3768 36.2125 47.6334 36.2414 47.8881C36.2703 48.1427 36.3904 48.3784 36.5795 48.5514C36.8934 48.7065 37.2401 48.7834 37.5901 48.7756C37.9402 48.7678 38.2831 48.6755 38.5898 48.5067C39.2919 48.1613 39.867 47.6031 40.2332 46.9116C41.7898 44.0761 39.5733 40.1928 37.0236 38.7157C35.788 37.9898 33.8058 37.916 33.5823 39.7376C33.3588 41.5591 35.8327 40.7428 36.6366 40.1348C37.3114 39.5804 37.8272 38.857 38.1311 38.0382C38.4351 37.2195 38.5164 36.3348 38.3668 35.4744C37.9286 33.5464 36.9428 31.786 35.5279 30.4048C35.3223 30.1801 35.6837 29.8834 35.9027 30.0588L35.9239 30.0401Z" fill="#F9EDD4"/>
<path d="M38.5125 84.9838C38.5125 84.9838 48.6225 110.618 56.1846 107.877C64.9406 104.695 50.4946 90.1998 46.248 86.9519C42.0013 83.7041 42.6592 82.5844 38.5125 84.9838Z" fill="#E19B9C"/>
<path d="M45.4156 86.0526C46.0623 88.214 45.7097 91.3516 43.6801 92.7199C43.3146 92.9907 42.875 93.1434 42.4202 93.1575C41.9655 93.1716 41.5173 93.0464 41.1356 92.7988C40.8168 92.5602 40.5968 92.2126 40.5177 91.8223C40.4386 91.432 40.5059 91.0262 40.7066 90.6822C40.8534 90.4413 41.2162 90.7167 41.0714 90.9277C40.4597 91.9602 41.6118 92.8812 42.6077 92.6976C43.0132 92.5968 43.3912 92.4074 43.7145 92.1429C44.0378 91.8784 44.2985 91.5454 44.4776 91.168C44.8976 90.4069 45.1602 89.5691 45.2497 88.7044C45.3392 87.8397 45.2538 86.9658 44.9985 86.1348C44.9161 85.8683 45.3432 85.7868 45.4156 86.0526V86.0526Z" fill="#D9665E"/>
<path d="M28.1989 85.521C28.1989 85.521 25.6301 87.2945 26.0904 88.0582C26.5506 88.822 28.3958 87.2104 29.5931 86.8698C30.7904 86.5293 33.7756 85.2758 33.7756 85.2758L28.1989 85.521Z" fill="#B5694A"/>
<path d="M42.0649 87.6628C40.853 88.5679 39.5936 89.4075 38.2919 90.1778C36.3698 91.2924 35.2794 93.4668 34.8313 91.7805C34.3833 90.0942 36.5986 88.0561 36.518 87.3179C36.3767 85.9936 34.1693 85.9849 30.4322 86.3344C25.524 86.7855 25.2538 85.884 25.4611 85.6371C26.3179 84.6914 28.6566 84.6889 32.3897 83.6566C35.6925 82.858 39.1462 82.9324 42.4115 83.8724C42.4511 85.1453 42.3347 86.4182 42.0649 87.6628Z" fill="#E19B9C"/>
<path d="M50.5911 171.17L52.8246 188.162L46.6038 190.512L40.4056 172.188L50.5911 171.17Z" fill="#E19B9C"/>
<path d="M37.3725 204.139C37.3083 204.864 37.4542 205.591 37.7928 206.235L56.4117 198.05C56.4038 197.143 56.2688 196.242 56.0105 195.373C55.2955 192.886 53.8342 191.342 53.9964 190.279C54.4528 187.238 52.6792 187.048 52.6792 187.048C51.8664 186.451 50.3961 188.901 49.2552 189.446C48.1144 189.991 45.842 188.122 45.4863 188.188C45.1305 188.254 45.8348 190.901 45.7126 192.71C45.5903 194.518 41.1246 197.628 38.753 200.79C37.9701 201.744 37.4895 202.91 37.3725 204.139V204.139Z" fill="#9287E1"/>
<path d="M43.2721 195.405C43.5783 195.231 43.925 195.14 44.2773 195.143C44.6295 195.146 44.9748 195.241 45.2784 195.42C45.52 195.557 45.2446 195.92 45.0329 195.785C44.7936 195.649 44.5227 195.579 44.2476 195.582C43.9725 195.584 43.7029 195.659 43.4662 195.799C43.2263 195.934 43.0315 195.549 43.2721 195.405Z" fill="white"/>
<path d="M42.4067 196.33C42.9874 196.184 43.5994 196.225 44.1551 196.448C44.4194 196.546 44.2812 196.959 44.0168 196.86C43.5364 196.657 43.0017 196.621 42.4982 196.758C42.2324 196.83 42.1409 196.402 42.4067 196.33Z" fill="white"/>
<path d="M41.2967 197.309C41.9031 197.189 42.5303 197.232 43.1151 197.432C43.3801 197.52 43.2318 197.931 42.9668 197.843C42.456 197.668 41.908 197.631 41.3783 197.736C41.1032 197.798 41.0216 197.37 41.2967 197.309Z" fill="white"/>
<path d="M37.3725 204.139C37.3083 204.864 37.4542 205.591 37.7928 206.235L56.4117 198.05C56.4038 197.143 56.2688 196.242 56.0105 195.373L37.3725 204.139Z" fill="white"/>
<path d="M54.4361 192.235C52.8628 192.734 51.4912 193.725 50.5229 195.061C49.5545 196.398 49.0405 198.01 49.0565 199.66C49.0376 199.94 48.6279 199.912 48.6269 199.631C48.6151 197.885 49.1657 196.181 50.1972 194.773C51.2288 193.364 52.6865 192.324 54.3545 191.808C54.6211 191.726 54.7026 192.153 54.4361 192.235Z" fill="white"/>
<path d="M49.009 197.69L38.2043 202.82C38.1555 202.833 38.1036 202.829 38.0575 202.809C38.0114 202.788 37.9738 202.752 37.951 202.707C37.9282 202.662 37.9215 202.611 37.9322 202.561C37.9428 202.512 37.9701 202.468 38.0094 202.436L48.8176 197.255C48.8693 197.234 48.9273 197.233 48.9796 197.252C49.032 197.272 49.0749 197.311 49.0996 197.361C49.1244 197.412 49.129 197.469 49.1127 197.523C49.0964 197.576 49.0603 197.622 49.0117 197.65L49.009 197.69Z" fill="white"/>
<path d="M27.4327 124.32C26.4946 138.197 38.819 178.584 38.819 178.584L54.947 176.513L50.6311 139.699L78.7086 138.425C83.5948 128.057 81.404 120.231 67.4687 116.589C67.4687 116.589 45.6646 115.476 34.37 117.904C32.382 118.214 30.4839 118.948 28.8049 120.057C28.0049 120.756 27.5732 122.242 27.4327 124.32Z" fill="white"/>
<path d="M27.4327 124.32C30.3563 125.612 34.0416 126.624 36.7506 125.151C39.9281 123.429 37.0883 120.155 34.386 117.965C32.3979 118.275 30.4999 119.01 28.8208 120.118C28.0049 120.756 27.5732 122.242 27.4327 124.32Z" fill="#313131"/>
<path d="M55.0909 173.642L36.8221 176.351L37.8433 181.288L56.3066 178.522L55.0909 173.642Z" fill="#313131"/>
<path d="M51.7482 173.948C51.775 173.945 51.8009 173.937 51.8244 173.923C51.8479 173.91 51.8685 173.892 51.8849 173.871C51.9014 173.85 51.9133 173.825 51.9201 173.799C51.9268 173.773 51.9282 173.746 51.9242 173.719L47.1307 134.765L72.7021 133.894C72.7323 133.903 72.7641 133.905 72.7952 133.9C72.8263 133.895 72.8558 133.883 72.8816 133.865C72.9075 133.847 72.9289 133.823 72.9444 133.796C72.9599 133.768 72.9691 133.738 72.9712 133.707C72.9734 133.675 72.9684 133.644 72.9567 133.614C72.945 133.585 72.9269 133.559 72.9038 133.538C72.8806 133.516 72.853 133.5 72.8228 133.491C72.7927 133.482 72.7609 133.48 72.7298 133.484L46.9944 134.404C46.9648 134.402 46.9351 134.408 46.9081 134.42C46.881 134.432 46.8573 134.451 46.8392 134.474C46.8156 134.528 46.8116 134.588 46.8277 134.644L51.647 173.811C51.6534 173.839 51.6656 173.866 51.683 173.89C51.7004 173.914 51.7226 173.933 51.7482 173.948Z" fill="#313131"/>
<path d="M69.0693 168.776C69.1944 171.133 69.5334 173.474 70.082 175.769C73.2283 191.137 82.518 223.561 82.518 223.561L99.3294 221.475C99.3294 221.475 89.2311 174.736 89.7604 172.102C91.1838 165.002 106.022 126.18 106.022 126.18L80.1823 118.853C80.1823 118.853 70.9033 155.01 69.2707 166.391C69.1739 167.378 69.0899 168.175 69.0693 168.776Z" fill="white"/>
<path d="M69.0693 168.776C69.1944 171.133 69.5334 173.474 70.082 175.77C73.2945 175.756 78.4379 175.24 79.4979 172.181C81.1188 167.503 72.609 166.596 69.3086 166.424C69.1739 167.378 69.0898 168.175 69.0693 168.776Z" fill="#313131"/>
<path d="M77.6772 129.483C77.0152 132.299 76.3624 135.125 75.7104 137.941C75.6422 138.208 75.2506 138.061 75.3081 137.804C75.9702 134.988 76.623 132.162 77.275 129.346C77.3432 129.079 77.7348 129.226 77.6772 129.483Z" fill="#313131"/>
<path d="M75.8715 135.112C74.1888 134.617 73.5751 132.709 73.6732 131.109C73.7764 129.103 74.313 127.143 75.2459 125.364C75.372 125.132 75.7154 125.396 75.5913 125.599C74.7951 127.166 74.302 128.869 74.1379 130.619C73.9533 132.162 74.2765 134.211 76.0058 134.76C76.2615 134.837 76.1245 135.229 75.8688 135.152L75.8715 135.112Z" fill="#313131"/>
<path d="M96.0994 218.035L96.1594 218.039C96.1859 218.033 96.211 218.022 96.2329 218.006C96.2549 217.99 96.2734 217.969 96.2872 217.946C96.301 217.922 96.3099 217.896 96.3132 217.869C96.3166 217.842 96.3144 217.815 96.3068 217.788C96.206 217.35 85.9321 174.543 86.1035 172.156C86.2749 169.768 100.588 131.444 100.725 131.051C100.744 130.999 100.742 130.942 100.719 130.892C100.696 130.841 100.655 130.802 100.603 130.782C100.551 130.765 100.494 130.769 100.445 130.791C100.395 130.814 100.355 130.854 100.334 130.904C99.7447 132.491 85.8694 169.681 85.6939 172.128C85.5184 174.575 95.4864 216.117 95.9091 217.882C95.9209 217.924 95.9455 217.962 95.9797 217.989C96.0138 218.017 96.0557 218.033 96.0994 218.035V218.035Z" fill="#313131"/>
<path d="M93.8841 59.8824C93.8841 59.8824 97.8654 62.0083 102.374 64.8021C105.168 66.5265 109.722 68.0488 109.935 69.7895C112.98 94.0827 107.838 118.625 107.838 118.625L68.5001 111.279C72.9664 110.387 69.5897 71.4078 69.2833 68.5167C68.9254 65.2006 93.8841 59.8824 93.8841 59.8824Z" fill="#9287E1"/>
<path d="M96.783 81.2853L96.1893 90.0672L76.8234 87.925L78.3227 79.405L96.783 81.2853Z" fill="white"/>
<path d="M109.441 108.276C109.441 108.276 107.963 120.481 105.47 130.79C105.47 130.79 79.0094 127.295 64.2156 116.459C64.2156 116.459 69.8085 111.819 70.7177 102.527L109.441 108.276Z" fill="#9287E1"/>
<path d="M71.91 107.455C79.2266 108.38 86.3375 110.52 92.95 113.785C93.1923 113.912 93.0541 114.324 92.8017 114.196C86.2267 110.946 79.1565 108.813 71.881 107.884C71.6012 107.866 71.6316 107.416 71.91 107.455V107.455Z" fill="#313131"/>
<path d="M107.563 89.2904C107.648 99.8696 106.688 110.431 104.699 120.822C104.155 123.716 103.523 126.59 102.801 129.445C102.782 129.725 102.331 129.574 102.399 129.308C104.931 119.106 106.456 108.681 106.952 98.1815C107.093 95.2069 107.15 92.2333 107.123 89.2607C107.142 88.981 107.562 89.0094 107.563 89.2904V89.2904Z" fill="#313131"/>
<path d="M92.126 70.8939C91.6316 71.593 90.9969 72.1812 90.2624 72.6211C89.5279 73.0611 88.7098 73.343 87.8602 73.449C87.0106 73.5549 86.1482 73.4826 85.3281 73.2365C84.5081 72.9904 83.7483 72.5761 83.0974 72.0199C82.917 71.8672 83.1291 71.5503 83.2989 71.7123C83.9095 72.2413 84.6239 72.6368 85.3963 72.8735C86.1688 73.1103 86.9821 73.1829 87.7842 73.0869C88.5864 72.9909 89.3596 72.7283 90.0544 72.3159C90.7491 71.9036 91.3499 71.3506 91.8184 70.6925C91.9625 70.4914 92.268 70.7229 92.126 70.8939V70.8939Z" fill="#313131"/>
<path d="M70.2728 76.0005C70.3086 79.7766 70.7667 83.5411 70.7625 87.3145C70.7442 87.5842 70.3446 87.5572 70.3429 87.2861C70.3071 83.51 69.849 79.7455 69.8532 75.9721C69.8708 75.7123 70.2704 75.7394 70.2728 76.0005Z" fill="#D9665E"/>
<path d="M95.06 61.0459C95.06 61.0459 94.4596 69.9276 86.4231 70.0367L84.4088 63.6077L83.4923 60.6854L82.8681 58.6359L89.0348 52.9306C90.5469 55.9711 92.587 58.7188 95.06 61.0459V61.0459Z" fill="#E19B9C"/>
<path d="M89.1093 56.5788C88.4026 62.2819 85.9041 64.5017 84.7555 64.7151L83.4923 60.6853L89.1093 56.5788Z" fill="#313131"/>
<path d="M73.0424 50.3239C73.0424 50.3239 72.7534 53.7067 76.7833 55.1133L73.0424 50.3239Z" fill="#D9665E"/>
<path d="M88.604 50.5429C88.7548 50.82 88.8863 51.1073 88.9976 51.4025C89.239 52.0194 89.3714 52.6736 89.3888 53.3358C89.4084 54.4291 89.3345 55.5221 89.1679 56.6028C88.9762 57.6266 88.5476 58.5914 87.9165 59.4201C87.2855 60.2488 86.4693 60.9183 85.5333 61.3753C80.7749 64.0646 78.5316 61.0224 76.1984 55.8967C74.748 52.7074 72.9533 51.4921 73.0521 49.8829C73.0575 49.803 73.0629 49.7231 73.069 49.6332C73.6414 47.6909 74.9386 46.043 76.6921 45.0305C77.0367 44.833 77.3592 44.6641 77.731 44.5086L77.9496 44.3929L78.0296 44.3983L78.2781 44.2846L78.454 44.2062L78.8465 44.042C82.9691 42.4439 85.1862 44.2398 86.5916 46.4625C87.332 47.7872 88.0036 49.1491 88.604 50.5429V50.5429Z" fill="#E19B9C"/>
<path d="M80.7403 52.5505C80.5628 52.6006 80.406 52.7065 80.2931 52.8524C80.1803 52.9984 80.1173 53.1767 80.1134 53.3612C80.0945 53.6409 79.6649 53.6119 79.6738 53.3315C79.6898 53.0508 79.7936 52.7822 79.9704 52.5636C80.1473 52.3451 80.3882 52.1876 80.6594 52.1134C80.9253 52.0411 81.0162 52.4788 80.7403 52.5505V52.5505Z" fill="#D9665E"/>
<path d="M77.7801 54.7692C77.6219 54.6841 77.4424 54.6466 77.2633 54.6612C77.0843 54.6758 76.9132 54.7419 76.7709 54.8515C76.5383 55.0265 76.2495 54.6958 76.4821 54.5208C76.7014 54.3435 76.9697 54.2375 77.2509 54.217C77.5322 54.1966 77.8129 54.2627 78.0555 54.4064C78.3072 54.5439 78.0218 54.9059 77.8101 54.7712L77.7801 54.7692Z" fill="#D9665E"/>
<path d="M83.3571 52.888C83.4894 53.1579 83.1992 53.5899 82.6901 53.8465C82.1809 54.1032 81.6674 54.1286 81.5151 53.8574C81.3628 53.5862 81.6722 53.1655 82.182 52.8989C82.6918 52.6322 83.2141 52.6274 83.3571 52.888Z" fill="#B5694A"/>
<path d="M76.7675 57.1295C77.0525 57.1426 77.3355 57.0747 77.5836 56.9337C78.0941 56.6571 78.3943 56.2258 78.2506 55.9752C78.107 55.7246 77.5854 55.7195 77.0756 55.9861C76.8284 56.1094 76.6184 56.2961 76.4669 56.5271L76.7675 57.1295Z" fill="#B5694A"/>
<path d="M79.4172 51.3369C79.6566 51.0621 80.0924 50.8506 80.4345 51.1347C80.5223 51.2246 80.6402 51.279 80.7655 51.2874C80.8908 51.2959 81.0148 51.2579 81.1139 51.1806C81.1613 51.1399 81.2 51.0902 81.228 51.0344C81.256 50.9786 81.2726 50.9177 81.2768 50.8554C81.281 50.7931 81.2727 50.7306 81.2525 50.6715C81.2323 50.6124 81.2006 50.558 81.1592 50.5113C80.995 50.366 80.8036 50.2549 80.5961 50.1844C80.3886 50.1138 80.1691 50.0853 79.9505 50.1004C79.7318 50.1155 79.5183 50.174 79.3225 50.2724C79.1266 50.3708 78.9523 50.5072 78.8097 50.6736C78.7198 50.7614 78.6655 50.8792 78.657 51.0045C78.6485 51.1299 78.6865 51.2539 78.7638 51.353C78.8045 51.4003 78.8542 51.4391 78.91 51.4671C78.9659 51.495 79.0267 51.5116 79.089 51.5158C79.1513 51.52 79.2138 51.5118 79.2729 51.4916C79.332 51.4714 79.3865 51.4397 79.4332 51.3982L79.4172 51.3369Z" fill="#D9665E"/>
<path d="M76.0747 53.5699C76.0956 53.3802 76.176 53.202 76.3046 53.061C76.4332 52.92 76.6032 52.8234 76.7902 52.7853C76.9091 52.7526 77.0109 52.6755 77.0746 52.5699C77.1382 52.4642 77.1589 52.3382 77.1322 52.2178C77.1056 52.0974 77.0336 51.9919 76.9313 51.923C76.829 51.8542 76.7042 51.8272 76.5826 51.8479C76.2306 51.9258 75.9087 52.1043 75.6562 52.3616C75.4036 52.6189 75.2312 52.9439 75.1598 53.2973C75.0293 53.8907 75.9436 54.1733 76.0747 53.5699V53.5699Z" fill="#D9665E"/>
<path d="M78.9297 55.5795C79.2923 55.5861 79.6486 55.4844 79.9531 55.2874C79.9787 55.2631 79.9943 55.2301 79.9966 55.195C79.999 55.1598 79.988 55.125 79.9659 55.0975C79.9546 55.0837 79.9407 55.0724 79.9248 55.0642C79.909 55.056 79.8916 55.0511 79.8738 55.0499C79.856 55.0487 79.8381 55.0512 79.8213 55.0572C79.8045 55.0632 79.7891 55.0725 79.7761 55.0847C79.5355 55.2271 79.2653 55.3118 78.9866 55.3324C79.0617 54.7669 78.979 54.1917 78.7476 53.6703C78.7403 53.6544 78.73 53.6402 78.7171 53.6285C78.7042 53.6167 78.689 53.6077 78.6726 53.6019C78.6561 53.5961 78.6386 53.5936 78.6212 53.5947C78.6038 53.5958 78.5868 53.6004 78.5712 53.6082C78.5545 53.6145 78.5394 53.6242 78.5266 53.6367C78.5139 53.6491 78.5038 53.664 78.497 53.6805C78.4903 53.6969 78.487 53.7146 78.4873 53.7324C78.4877 53.7502 78.4917 53.7678 78.4991 53.784C78.7261 54.2949 78.786 54.8644 78.6701 55.4114C78.6529 55.449 78.6501 55.4917 78.662 55.5313C78.6738 55.5495 78.6893 55.5649 78.7075 55.5766C78.7258 55.5882 78.7464 55.5957 78.7678 55.5986L78.9297 55.5795Z" fill="#D9665E"/>
<path d="M87.5968 52.8233C88.2119 52.5231 88.7061 52.0219 88.9976 51.4025C89.239 52.0194 89.3714 52.6736 89.3888 53.3359C88.7522 53.3593 88.1247 53.1798 87.5968 52.8233V52.8233Z" fill="#D9665E"/>
<path d="M85.4268 46.9157C83.7868 48.4609 85.3357 51.8274 84.0934 51.7936C82.8512 51.7598 83.3138 46.4015 80.8646 47.892C78.4153 49.3824 78.9554 48.6662 77.8444 49.3638C75.9576 50.5511 73.9316 49.6413 73.0148 49.8403C73.0202 49.7604 73.0256 49.6804 73.0317 49.5905C73.6042 47.6483 74.9013 46.0004 76.6549 44.9879C76.9994 44.7903 77.322 44.6215 77.6938 44.4659L77.9124 44.3502L77.9923 44.3556L78.2408 44.242L78.4168 44.1635L78.8093 43.9994C82.9319 42.4013 85.149 44.1971 86.5544 46.4199C86.1315 46.4459 85.7318 46.6217 85.4268 46.9157Z" fill="#D9665E"/>
<path d="M84.0934 51.7936C85.3756 51.8301 83.8268 48.4635 85.4268 46.9157C85.7159 46.614 86.1018 46.4233 86.5171 46.3772C87.2716 47.7248 87.9552 49.111 88.5648 50.5302C88.7086 50.8024 88.8371 51.0825 88.9496 51.3691C88.7078 49.2591 88.3365 47.166 87.8378 45.1015C87.7664 44.9208 87.6844 44.7443 87.5925 44.5731L87.3768 44.4983C87.0528 44.4086 86.7196 44.3558 86.3838 44.3408C85.8652 44.3198 85.3465 44.3795 84.8462 44.5179C83.2444 44.9944 81.7563 45.7919 80.4725 46.8618C82.1724 47.5488 83.0917 51.766 84.0934 51.7936Z" fill="#D9665E"/>
<path d="M78.8604 57.7929C78.8604 57.7929 79.9135 57.0612 82.0156 55.6577C82.0156 55.6577 83.1444 58.1126 81.521 58.9664C80.1475 59.6865 78.8604 57.7929 78.8604 57.7929Z" fill="white"/>
<path d="M81.6958 59.9409C81.9062 59.9254 82.1081 59.8508 82.278 59.7256C82.4479 59.6005 82.579 59.43 82.6563 59.2336C82.6661 59.1892 82.6588 59.1427 82.6359 59.1035C82.6129 59.0643 82.5759 59.0352 82.5323 59.0221C82.4888 59.009 82.4419 59.0128 82.4011 59.0329C82.3602 59.0529 82.3285 59.0876 82.3122 59.1301C82.2515 59.2645 82.1544 59.3793 82.0319 59.4614C81.9094 59.5435 81.7663 59.5897 81.6189 59.5947C81.3959 59.6298 81.4728 59.976 81.6958 59.9409Z" fill="#B5694A"/>
<path d="M85.4337 52.4562C85.1056 52.1383 84.8543 51.7497 84.699 51.3201C84.5437 50.8905 84.4885 50.4311 84.5374 49.9769C84.6185 48.778 84.9893 46.856 86.0907 46.4487C87.7065 45.8554 88.5959 47.0998 89.1807 48.5444C89.7655 49.9891 89.8128 52.2605 87.7872 52.9766C87.3867 53.1279 86.9509 53.1593 86.5329 53.0668C86.115 52.9744 85.733 52.7622 85.4337 52.4562V52.4562Z" fill="#E19B9C"/>
<path d="M87.1407 51.2569C86.6993 50.7576 86.3944 50.1527 86.2557 49.5009C86.185 48.914 86.3631 47.9124 87.0846 47.7805C87.3385 47.7375 87.3149 47.3444 87.111 47.3909C86.7818 47.4757 86.4884 47.6637 86.2737 47.9273C86.0591 48.1909 85.9344 48.5163 85.918 48.8558C85.8394 49.8112 86.1351 50.7596 86.7428 51.501C86.8891 51.7116 87.2157 51.4828 87.0687 51.2821L87.1407 51.2569Z" fill="#D9665E"/>
<path d="M79.7941 54.3733C79.9786 54.7533 80.2718 55.0699 80.6365 55.2831C81.0012 55.4962 81.4209 55.5962 81.8425 55.5705C82.2641 55.5448 82.6687 55.3945 83.0047 55.1386C83.3408 54.8827 83.5933 54.5328 83.7303 54.1332C83.8673 53.7336 83.8825 53.3024 83.7741 52.8942C83.6657 52.4859 83.4385 52.119 83.1213 51.8401C82.8041 51.5611 82.4113 51.3826 81.9926 51.3271C81.5738 51.2717 81.148 51.3419 80.7692 51.5287C80.2639 51.7779 79.8778 52.217 79.6951 52.75C79.5124 53.2829 79.5479 53.8665 79.7941 54.3733V54.3733Z" fill="white"/>
<path d="M74.4995 56.9761C74.6853 57.3548 74.9793 57.6699 75.3442 57.8816C75.7091 58.0932 76.1284 58.1919 76.5494 58.1652C76.9704 58.1385 77.374 57.9875 77.7092 57.7314C78.0444 57.4754 78.2961 57.1257 78.4326 56.7265C78.569 56.3274 78.584 55.8967 78.4757 55.4891C78.3674 55.0814 78.1407 54.715 77.8242 54.4361C77.5077 54.1573 77.1156 53.9786 76.6975 53.9226C76.2794 53.8666 75.8541 53.9358 75.4754 54.1215C74.9692 54.3726 74.5828 54.8134 74.4 55.348C74.2173 55.8826 74.253 56.4678 74.4995 56.9761V56.9761Z" fill="white"/>
<path d="M79.7933 54.5339C79.2338 54.4961 78.4398 54.5126 78.2833 55.1945C78.2644 55.4743 77.8129 55.3233 77.8711 55.0563C78.0818 54.1673 79.0717 54.0736 79.8223 54.1043C80.1021 54.1232 80.0737 54.5428 79.7933 54.5339Z" fill="white"/>
<path d="M82.3242 51.2424C82.4534 50.6508 82.7007 50.0913 83.0514 49.5977C83.4021 49.104 83.8489 48.6862 84.3651 48.3695C84.6057 48.2251 84.7898 48.619 84.5492 48.7633C84.0888 49.0554 83.6913 49.4365 83.3801 49.8842C83.0689 50.3319 82.8503 50.8373 82.737 51.3707C82.7181 51.6504 82.2667 51.4995 82.3249 51.2324L82.3242 51.2424Z" fill="white"/>
<path d="M52.5242 105.311C54.3969 109.232 58.3031 108.904 62.2509 102.617C64.2122 99.4496 66.0107 96.1845 67.6394 92.8341C68.1413 91.7942 68.6098 90.8021 69.0309 89.9173C70.5974 86.4904 71.4982 84.1526 71.4982 84.1526L61.8377 78.5917C61.8377 78.5917 61.3486 79.4418 60.5913 80.8459C60.191 81.5716 59.7199 82.4531 59.2108 83.4524C55.8383 89.9889 50.6382 101.29 52.5242 105.311Z" fill="#E19B9C"/>
<path d="M54.4578 94.5224C56.1635 96.222 57.5799 98.1892 58.6508 100.346C58.6722 100.398 58.6732 100.456 58.6534 100.508C58.6337 100.56 58.5948 100.603 58.5446 100.628C58.4943 100.653 58.4366 100.657 58.3831 100.641C58.3295 100.625 58.2842 100.589 58.2563 100.54C57.2072 98.4146 55.8117 96.4786 54.1272 94.8111C53.9295 94.6171 54.2602 94.3284 54.4578 94.5224Z" fill="#B5694A"/>
<path d="M55.4532 95.6837C56.3298 95.9035 57.1715 96.2441 57.9541 96.6958C58.1958 96.8326 57.9204 97.1954 57.7087 97.0606C56.959 96.623 56.1491 96.2977 55.305 96.0952C55.0386 96.027 55.1769 95.6148 55.4532 95.6837V95.6837Z" fill="#B5694A"/>
<path d="M58.9757 81.8809C58.9757 81.8809 64.7863 87.3822 71.0181 89.6201C71.0181 89.6201 71.7964 87.9063 72.7332 85.4806C71.9513 77.4488 70.297 72.9711 70.1901 70.3946C70.1842 70.1271 70.2022 69.8596 70.2442 69.5953C70.2941 69.1952 70.3846 68.8011 70.5144 68.4193C70.6304 68.0791 70.7836 67.7529 70.9715 67.4465C71.2835 66.968 71.6827 66.5523 72.1483 66.2213C72.1483 66.2213 64.2549 70.0034 58.9757 81.8809Z" fill="#9287E1"/>
<path d="M60.1065 80.0002C63.014 82.7357 66.3717 84.949 70.0319 86.5425C70.2955 86.6507 70.1472 87.0622 69.8936 86.9547C66.15 85.3474 62.7126 83.1049 59.7332 80.3263C59.5356 80.1323 59.8556 79.8528 60.0639 80.0375L60.1065 80.0002Z" fill="#313131"/>
<path d="M70.7473 77.1466C70.5504 81.1478 70.5001 85.159 70.5962 89.1801C70.58 89.4198 70.2304 89.3962 70.2266 89.1551C70.1171 85.1331 70.1774 81.1226 70.3777 77.1216C70.3902 77.0806 70.4163 77.045 70.4517 77.0207C70.487 76.9963 70.5296 76.9846 70.5724 76.9875C70.6152 76.9904 70.6558 77.0077 70.6876 77.0366C70.7194 77.0655 70.7404 77.1042 70.7473 77.1466V77.1466Z" fill="#313131"/>
<path d="M109.431 89.8683C109.431 89.8683 110.083 90.916 111.195 92.567L111.797 93.4708C114.022 96.7826 116.629 102.449 120.534 107.49C125.149 113.463 129.895 112.579 132.115 108.403C134.334 104.228 129.433 94.1713 125.479 87.7818C124.429 86.0949 123.5 84.6973 122.871 83.7615C122.242 82.8257 122.021 82.5297 122.021 82.5297L109.431 89.8683Z" fill="#E19B9C"/>
<path d="M130.373 97.045C130.373 97.045 135.392 106.236 131.306 112.945C127.464 119.3 110.357 132.134 110.357 132.134L105.429 130.797C105.429 130.797 115.289 114.402 121.472 105.647L130.373 97.045Z" fill="#E19B9C"/>
<path d="M109.022 128.431C109.867 128.749 110.557 129.383 110.945 130.199C111.333 131.015 111.391 131.95 111.105 132.807C110.792 133.731 110.635 134.7 110.64 135.676C110.78 137.753 111.529 140.182 111.267 141.248C110.929 142.831 109.922 141.398 109.824 141.211C109.343 140.209 108.93 139.175 108.588 138.117C108.66 139.741 108.942 141.349 109.429 142.901C110.057 144.147 109.538 145.297 108.319 144.471C107.1 143.646 106.017 139.779 106.024 138.636C105.781 139.956 105.904 141.318 106.38 142.574C106.947 143.543 107.221 144.657 107.167 145.779C107.115 146.548 105.579 146.253 104.539 143.825C103.809 142.299 103.554 140.59 103.807 138.917C103.429 139.753 103.134 140.624 102.928 141.518C102.514 143.186 103.589 145.105 102.924 145.883C102.259 146.661 101.115 144.436 101.038 142.905C100.828 141.404 100.969 139.874 101.45 138.437C101.959 136.845 102.631 135.309 103.456 133.855C104.117 132.846 105.985 128.958 107.621 128.366C108.082 128.231 108.575 128.253 109.022 128.431V128.431Z" fill="#E19B9C"/>
<path d="M105.244 131.016C105.244 131.016 102.314 133.226 101.836 134.368C101.357 135.51 100.013 136.985 100.75 137.366C101.487 137.747 103.087 135.908 103.087 135.908L105.244 131.016Z" fill="#E19B9C"/>
<path d="M120.515 106.877C122.113 106.695 123.731 106.832 125.275 107.279C125.512 107.345 125.427 107.711 125.251 107.648C123.738 107.213 122.155 107.078 120.59 107.253C120.35 107.237 120.333 106.904 120.615 106.883L120.515 106.877Z" fill="#313131"/>
<path d="M121.781 106.862C122.395 106.051 123.227 105.432 124.18 105.077C124.396 104.991 124.513 105.35 124.286 105.435C123.399 105.771 122.625 106.352 122.055 107.111C121.912 107.302 121.636 107.083 121.781 106.862Z" fill="#313131"/>
<path d="M104.957 66.9739C104.957 66.9739 114.929 68.8123 125.319 84.5091C125.319 84.5091 118.967 91.1854 111.858 93.4549C111.858 93.4549 105.228 85.6701 103.168 79.6294C101.282 74.1223 101.972 69.4017 104.957 66.9739Z" fill="#9287E1"/>
<path d="M123.521 82.6111C119.908 86.4394 115.465 89.3873 110.533 91.2275C110.275 91.3305 110.081 90.936 110.348 90.8437C115.247 89.0072 119.666 86.0837 123.271 82.2931C123.456 82.0848 123.745 82.4155 123.551 82.6131L123.521 82.6111Z" fill="#313131"/>
<path d="M111.081 92.7701C111.114 92.7613 111.144 92.7422 111.165 92.7155C111.186 92.6991 111.203 92.6785 111.215 92.6551C111.227 92.6318 111.234 92.6061 111.236 92.5798C111.238 92.5535 111.234 92.5271 111.225 92.5023C111.216 92.4775 111.202 92.4549 111.184 92.4358C107.563 88.5298 104.702 83.9832 102.747 79.0288C102.741 79 102.73 78.9728 102.713 78.9488C102.696 78.9249 102.675 78.905 102.649 78.8904C102.624 78.8758 102.596 78.867 102.567 78.8645C102.537 78.862 102.508 78.8659 102.481 78.8759C102.453 78.886 102.428 78.9019 102.408 78.9226C102.387 78.9433 102.371 78.9683 102.361 78.9958C102.351 79.0233 102.347 79.0526 102.35 79.0817C102.353 79.1109 102.361 79.1391 102.376 79.1644C104.35 84.1683 107.239 88.7609 110.895 92.7073C110.918 92.7322 110.948 92.7509 110.98 92.7618C111.013 92.7728 111.047 92.7756 111.081 92.7701V92.7701Z" fill="#313131"/>
<path d="M104.076 82.8221C104.107 82.8137 104.135 82.7985 104.159 82.7775C104.183 82.7565 104.202 82.7303 104.215 82.701C104.234 82.6517 104.233 82.5969 104.211 82.5484C104.19 82.5 104.151 82.4619 104.102 82.4424C103.173 82.002 102.336 81.3904 101.634 80.6397C101.618 80.6191 101.597 80.6022 101.574 80.5899C101.55 80.5777 101.525 80.5705 101.498 80.5687C101.472 80.567 101.446 80.5707 101.421 80.5796C101.396 80.5886 101.373 80.6026 101.354 80.6207C101.315 80.6556 101.291 80.7045 101.288 80.7568C101.284 80.8091 101.301 80.8607 101.335 80.9005C102.072 81.7026 102.959 82.3525 103.946 82.8133L104.076 82.8221Z" fill="#313131"/>
<path d="M87.2586 44.7613C87.2586 44.7613 95.6774 38.9974 90.3931 38.4796C83.6029 37.8198 77.9524 44.3529 77.9524 44.3529L87.2586 44.7613Z" fill="#E19B9C"/>
<path d="M72.9629 50.6096C72.9629 50.6096 75.7107 51.0864 81.8831 47.8203C86.0456 45.6327 87.6259 44.5252 87.6259 44.5252C87.6259 44.5252 86.0471 38.1858 77.9661 40.2892C69.3142 42.5245 72.9629 50.6096 72.9629 50.6096ZM75.6869 47.281C76.2064 47.082 76.7743 47.0469 77.3143 47.1803C77.8543 47.3137 78.3406 47.6092 78.7076 48.0272C77.5319 48.9169 76.1335 49.4648 74.6663 49.6107C74.6663 49.6107 74.4568 47.8101 75.6869 47.281Z" fill="white"/>
<path d="M77.3505 40.4884C80.7449 40.4569 84.3606 42.4978 85.1153 46.0315C85.1244 46.0734 85.1166 46.1172 85.0934 46.1532C85.0703 46.1893 85.0338 46.2148 84.9919 46.2239C84.95 46.233 84.9062 46.2252 84.8701 46.202C84.8341 46.1789 84.8087 46.1424 84.7995 46.1005C84.024 42.726 80.5714 40.7965 77.3262 40.8481C77.1164 40.8339 77.1373 40.5242 77.3485 40.5184L77.3505 40.4884Z" fill="#313131"/>
<path d="M78.8002 47.8427C78.9972 47.9261 79.1679 48.0614 79.294 48.2342C79.4201 48.407 79.4968 48.6108 79.5161 48.8238C79.5019 49.0334 79.207 49.0937 79.1906 48.892C79.185 48.7333 79.1351 48.5793 79.0465 48.4475C78.958 48.3157 78.8343 48.2113 78.6894 48.1461C78.5045 48.0634 78.6059 47.7494 78.8002 47.8427Z" fill="#313131"/>
<path d="M74.7984 49.7299C74.7515 49.961 74.7773 50.201 74.8723 50.4169C74.9593 50.6133 74.669 50.7541 74.5814 50.5677C74.4589 50.2987 74.4198 49.9991 74.469 49.7077C74.4825 49.508 74.8326 49.5216 74.7984 49.7299V49.7299Z" fill="#313131"/>
</g>
</g>
<defs>
<radialGradient id="paint0_radial_1659_10124" cx="0" cy="0" r="1" gradientUnits="userSpaceOnUse" gradientTransform="translate(109.154 54.3232) rotate(125.472) scale(153.979 146.488)">
<stop offset="0.4375" stop-color="#D9D9D9"/>
<stop offset="1" stop-color="#D9D9D9" stop-opacity="0"/>
</radialGradient>
<clipPath id="clip0_1659_10124">
<rect width="150" height="250" fill="white" transform="matrix(-1 0 0 1 150 0)"/>
</clipPath>
</defs>
</svg>
